<svg width="76" height="76" viewBox="0 0 76 76" fill="none" xmlns="http://www.w3.org/2000/svg">
<g clip-path="url(#clip0_185_10)">
<path d="M71.7837 55.4126C65.8158 66.971 54.0896 75.0729 40.3995 75.9257C39.6058 75.9753 38.806 76.0001 38.0002 76.0001C26.9934 76.0001 17.0797 71.3205 10.141 63.843C4.32795 57.5792 0.60113 49.3533 0.0673828 40.2685C1.54374 41.7936 2.94996 42.7542 3.32461 39.9786C3.97982 35.1304 6.33892 26.6239 9.48324 28.7144C12.6284 30.8057 9.48324 32.9715 9.48324 33.9201C9.48324 34.8687 7.78021 35.1304 9.09062 36.9643C10.401 38.799 12.1041 37.2269 14.4632 40.1094C16.8214 42.992 14.9867 45.4819 16.1662 46.5297C17.3457 47.5784 21.5387 53.0946 23.3735 48.6331C25.2074 44.1715 25.6009 41.1538 24.5522 39.1249C23.5044 37.096 23.897 36.3091 23.897 34.737C23.897 33.1648 27.6614 32.395 25.1244 28.3902C22.5866 24.3855 20.4901 26.6128 18.9179 23.992C17.3457 21.372 14.8558 19.9299 16.4279 17.5717C18.001 15.2135 15.511 12.5927 19.5731 11.2823C23.6352 9.97186 22.98 6.43411 22.8492 6.04065C22.7944 5.87642 23.1066 4.42574 23.7199 2.7749C26.9062 1.48161 30.3071 0.608289 33.8551 0.224235C33.8551 0.224235 30.2746 3.20173 31.4097 4.68662C32.5456 6.17152 33.856 7.13294 34.4676 5.73529C35.0792 4.33764 33.1905 1.64926 35.9251 2.7749C38.6606 3.90055 35.0792 6.25876 39.2722 4.25039C43.4652 2.24116 43.0204 1.73821 40.9281 0.111328C50.5159 0.841801 59.1089 5.1297 65.3882 11.6595C63.4653 12.8245 61.9453 14.2213 61.8974 15.737C61.7665 19.9299 60.0627 17.0474 55.2547 19.1438C50.4466 21.2403 51.9384 23.4685 52.5936 28.0541C53.2488 32.6405 49.8419 28.9719 46.0424 32.7714C42.242 36.5717 45.2563 36.5717 47.4837 36.7026C49.711 36.8334 51.8075 38.9299 56.5249 39.9786C61.2422 41.0264 58.6214 43.1229 58.3596 45.7437C58.097 48.3645 57.1801 52.0331 64.6491 52.6883C67.5813 52.9449 69.9686 54.0911 71.7837 55.4126Z" fill="#297BD4"/>
<path d="M47.7173 66.863C44.5721 68.5668 42.083 67.1256 40.9034 69.222C39.7239 71.3185 37.1031 73.2841 38.5443 74.3319C39.049 74.6989 39.729 75.3002 40.3996 75.9254C39.6059 75.9751 38.8061 75.9999 38.0003 75.9999C26.9935 75.9999 17.0798 71.3202 10.1411 63.8427C12.9527 61.0286 18.4091 56.3147 21.248 58.8697C25.1793 62.4083 24.9175 64.5047 30.421 61.8839C35.9244 59.2631 37.2348 57.8219 36.9722 55.0702C36.7104 52.3185 33.366 51.2698 37.0038 49.9594C40.6408 48.6499 42.9999 47.2078 42.7382 51.5324C42.4756 55.8562 41.2961 59.5249 40.2482 61.0979C39.1996 62.67 43.786 65.1078 46.276 63.823C48.7651 62.5391 50.8616 65.1599 47.7173 66.863Z" fill="#5CA64A"/>
<path d="M24.5524 39.1254C25.6011 41.1543 25.2076 44.172 23.3737 48.6335C21.5389 53.0951 17.3459 47.5789 16.1664 46.5302C14.9868 45.4824 16.8216 42.9925 14.4634 40.1099C12.1043 37.2274 10.4012 38.7995 9.09081 36.9648C7.7804 35.1309 9.48343 34.8683 9.48343 33.9206C9.48343 32.9728 12.6286 30.8062 9.48343 28.7149C6.33911 26.6244 3.98001 35.1309 3.3248 39.9791C2.95015 42.7547 1.54393 41.7941 0.0675738 40.269C0.0222395 39.518 0 38.7619 0 38.0006C0 22.0645 9.80932 8.41988 23.7201 2.77539C23.1068 4.42623 22.7946 5.87691 22.8494 6.04114C22.9802 6.4346 23.6354 9.97235 19.5733 11.2828C15.5112 12.5932 18.0011 15.214 16.4281 17.5722C14.856 19.9304 17.3459 21.3725 18.9181 23.9925C20.4903 26.6133 22.5868 24.3859 25.1246 28.3907C27.6616 32.3955 23.8972 33.1653 23.8972 34.7374C23.8972 36.3096 23.5046 37.0965 24.5524 39.1254Z" fill="#5CA64A"/>
<path d="M76.0001 38.0008C76.0001 44.2766 74.4784 50.1973 71.784 55.4133C69.9689 54.0917 67.5816 52.9456 64.6494 52.689C57.1804 52.0338 58.0973 48.3651 58.3599 45.7443C58.6217 43.1235 61.2425 41.0271 56.5252 39.9792C51.8078 38.9306 49.7113 36.8341 47.484 36.7032C45.2566 36.5724 42.2423 36.5724 46.0427 32.772C49.8422 28.9725 53.2491 32.6412 52.5939 28.0547C51.9387 23.4692 50.4469 21.241 55.2549 19.1445C60.0629 17.048 61.7668 19.9306 61.8977 15.7376C61.9456 14.2219 63.4656 12.8251 65.3884 11.6602C71.9611 18.491 76.0001 27.7742 76.0001 38.0008Z" fill="#5CA64A"/>
<path d="M39.2723 4.25026C35.0793 6.25863 38.6607 3.90042 35.9253 2.77477C33.1907 1.64912 35.0793 4.3375 34.4678 5.73515C33.8562 7.1328 32.5457 6.17139 31.4098 4.68649C30.2748 3.20159 33.8553 0.224103 33.8553 0.224103C35.2162 0.0761266 36.5993 0 38.0004 0C38.9858 0 39.9618 0.0376356 40.9283 0.111196C43.0205 1.73808 43.4653 2.24103 39.2723 4.25026Z" fill="#5CA64A"/>
<path d="M57.3984 63.6954C57.3984 63.6954 54.8212 65.4866 54.6904 62.953C54.5595 60.4194 53.0746 56.7944 56.0444 57.406C59.0142 58.0176 59.9047 57.0126 60.1151 56.6199C60.3246 56.2265 62.8146 56.1829 62.2903 58.2793C61.7659 60.3758 61.8096 61.8171 60.6745 61.8607C59.5394 61.9043 59.6258 62.2978 59.6703 63.1275C59.7139 63.9572 60.5436 64.9237 58.9715 64.3096" fill="#5CA64A"/>
<path opacity="0.02" d="M15.9483 28.2733C15.9483 28.2733 6.51367 25.7397 11.231 37.0963C15.9483 48.4528 12.6287 50.5493 10.9693 51.2481C9.30986 51.947 19.0935 59.5468 21.1028 51.2481C23.112 42.9495 18.6564 37.3589 27.3923 39.1055C36.1281 40.853 39.535 35.8731 35.2539 29.8454C30.9737 23.8178 30.0105 21.6819 24.5961 23.0317C19.1816 24.3814 17.4333 25.7397 14.9869 24.1676C12.5406 22.5955 10.0951 21.285 11.4055 25.6525C12.7159 30.0199 11.7553 34.8245 14.6379 35.436" fill="white"/>
<path opacity="0.02" d="M31.8905 58.6513C32.284 62.1241 30.3183 69.0687 36.542 66.6446C42.7665 64.2205 59.08 71.1002 60.783 63.041C62.486 54.9827 59.3417 49.4135 65.1727 51.9034C71.0038 54.3934 75.852 48.955 68.6455 43.5825C61.4382 38.2101 50.3005 38.0792 46.6969 42.338C43.0932 46.5968 51.5451 56.6857 40.1448 53.0171C28.7445 49.3485 18.3928 55.8996 25.1417 57.2759" fill="white"/>
<path opacity="0.02" d="M30.1875 8.98815C33.0701 6.95754 41.4561 6.36734 42.8982 8.20208C44.3395 10.0368 52.9881 15.6052 55.4122 13.6396C57.8363 11.674 62.8154 13.9013 61.9643 18.8153C61.1132 23.7293 57.5087 30.739 53.3816 27.4638C49.2536 24.1878 46.306 18.0293 40.9335 21.3711C35.5609 24.7121 33.2027 22.9433 31.5646 19.9949C29.9266 17.0465 23.5713 13.312 22.065 15.0158C20.5578 16.7188 17.8035 6.06455 23.5045 7.10038C29.2064 8.13622 30.1884 8.98815 30.1884 8.98815H30.1875Z" fill="white"/>
<path opacity="0.15" d="M76 38C76 44.2757 74.4783 50.1965 71.7839 55.4125C65.816 66.9709 54.0898 75.0728 40.3997 75.9256C39.6059 75.9752 38.8062 76 38.0004 76C35.8612 76 33.7638 75.8229 31.7212 75.4834C36.1238 73.0644 40.0798 69.9347 43.4363 66.2481C44.0598 65.5647 44.662 64.8616 45.2419 64.1414C50.7419 57.3113 54.3011 48.8536 55.0846 39.6055C55.0923 39.514 55.1 39.4233 55.1069 39.3318C55.2001 38.1428 55.248 36.9411 55.248 35.7282C55.248 33.1484 55.0324 30.6183 54.6184 28.1566C54.1916 25.617 53.5535 23.1493 52.723 20.7714C51.6863 17.8034 50.3493 14.9764 48.7481 12.3265C46.7046 8.94103 44.23 5.84379 41.4005 3.11349C40.2637 2.01436 39.0688 0.975105 37.8225 0.000855355C37.8815 0 37.9414 0 38.0004 0C38.9858 0 39.9618 0.0376356 40.9283 0.111196C50.5161 0.841669 59.1091 5.12956 65.3883 11.6593C71.961 18.4902 76 27.7734 76 38Z" fill="black"/>
</g>
<defs>
<clipPath id="clip0_185_10">
<rect width="76" height="76" fill="white"/>
</clipPath>
</defs>
</svg>
