<svg width="830" height="830" viewBox="0 0 830 830" fill="none" xmlns="http://www.w3.org/2000/svg">
<g clip-path="url(#clip0_164_353)">
<path d="M66.0137 194.64C66.6611 193.862 67.3008 193.091 67.9482 192.32C67.9482 192.32 67.9405 192.32 67.9405 192.328C67.3008 193.099 66.6611 193.869 66.0214 194.64H66.0137Z" fill="#B5B6AE"/>
<g opacity="0.2">
<path d="M92.4347 387.731C92.4732 387.461 92.5118 387.191 92.5503 386.929C92.5735 386.752 92.5966 386.575 92.612 386.398C93.113 381.889 92.612 377.457 91.2863 373.311C89.8912 368.979 87.579 364.94 84.5346 361.441C84.1877 361.048 83.8409 360.663 83.4786 360.285C82.415 359.168 81.282 358.112 80.072 357.125C75.0004 352.994 68.6803 350.073 61.5818 348.979C47.084 346.728 33.3647 352.686 25.8962 363.175C24.8557 364.64 23.9308 366.189 23.1447 367.815C23.0984 367.908 23.0521 368.008 23.0059 368.1C22.952 368.216 22.898 368.332 22.8441 368.447C22.7285 368.694 22.6205 368.948 22.5126 369.203C22.3045 369.704 22.1042 370.205 21.9192 370.713C21.873 370.837 21.8344 370.96 21.7882 371.083C21.7573 371.168 21.7265 371.26 21.6957 371.345C21.372 372.301 21.0944 373.28 20.8632 374.274C20.8401 374.366 20.8247 374.459 20.8016 374.544C20.763 374.729 20.7245 374.906 20.686 375.091C20.6705 375.183 20.6475 375.276 20.632 375.368C20.6089 375.499 20.5858 375.63 20.5627 375.762C20.5627 375.762 20.5627 375.761 20.5627 375.769C20.5396 375.893 20.5164 376.008 20.501 376.131C20.4779 376.262 20.4548 376.386 20.4394 376.517V376.578C20.4085 376.717 20.3854 376.864 20.37 377.002C20.3392 377.195 20.316 377.388 20.2929 377.573C20.2774 377.688 20.2698 377.804 20.2544 377.92C20.239 378.027 20.2312 378.135 20.2235 378.236C20.2158 378.336 20.2081 378.428 20.1927 378.528C20.0925 379.592 20.054 380.648 20.0694 381.704C20.0771 382.49 20.1157 383.276 20.185 384.055C20.185 384.132 20.2004 384.209 20.2081 384.286C20.2235 384.478 20.2467 384.679 20.2698 384.872C20.2698 384.872 20.2698 384.879 20.2698 384.887C20.2852 385.049 20.3083 385.211 20.3237 385.365C20.948 390.19 22.6976 394.783 25.3413 398.868C29.4339 405.203 35.6924 410.321 43.2997 413.211C45.1572 413.92 47.0995 414.491 49.1034 414.915C49.1034 414.915 49.1111 414.915 49.1188 414.915C49.2113 414.938 49.3037 414.953 49.4039 414.976C50.0283 415.107 50.6603 415.215 51.3 415.315C52.0476 415.431 52.7953 415.524 53.5352 415.601C55.57 415.801 57.5816 415.84 59.5624 415.724C67.6938 415.269 75.2008 412.294 81.02 407.493C83.7792 405.227 86.1531 402.544 88.0414 399.539C88.9586 398.074 89.7602 396.533 90.4308 394.93C91.3788 392.656 92.0648 390.236 92.4578 387.708L92.4347 387.731Z" fill="#73765B"/>
</g>
<path d="M0.400024 414.808C0.400024 418.168 0.438599 421.513 0.523376 424.85C0.577332 427.055 0.646667 429.251 0.739136 431.448C2.94348 487.434 16.2465 540.583 38.5211 588.731C61.7745 639.013 94.801 683.855 135.165 720.819H135.18C139.728 724.973 144.352 729.027 149.062 732.981C149.062 732.981 149.074 732.989 149.1 733.004C162.981 744.627 177.625 755.355 192.963 765.105C240.487 795.318 294.586 816.128 352.631 824.906C373.033 827.997 393.927 829.6 415.2 829.6C582.19 829.6 726.127 730.931 791.887 588.723C801.066 568.892 808.72 548.214 814.701 526.833C815.055 525.577 815.402 524.321 815.741 523.057C816.15 521.531 816.558 520.005 816.951 518.471C817.784 515.203 818.585 511.912 819.356 508.598C820.844 502.132 822.185 495.611 823.372 489.029C823.657 487.441 823.927 485.846 824.196 484.266C824.389 483.156 824.566 482.031 824.751 480.921C826.724 468.659 828.15 456.196 829.013 443.595C829.083 442.438 829.16 441.29 829.229 440.142C829.368 437.845 829.484 435.54 829.592 433.228C829.638 432.08 829.692 430.931 829.73 429.768C829.784 428.126 829.838 426.492 829.869 424.85C829.877 424.804 829.877 424.758 829.877 424.712C829.923 423.193 829.946 421.675 829.961 420.164C829.985 418.569 830 416.973 830 415.378V414.561C830 412.788 829.985 411.031 829.961 409.274C829.931 406.877 829.877 404.495 829.815 402.129C829.769 400.696 829.715 399.262 829.661 397.828C829.607 396.503 829.553 395.193 829.484 393.867C829.422 392.665 829.353 391.447 829.283 390.244C828.543 377.666 827.256 365.234 825.414 352.995C825.337 352.425 825.244 351.854 825.16 351.284C823.695 341.665 821.876 332.17 819.741 322.79C819.533 321.881 819.325 320.963 819.109 320.054C818.57 317.711 817.992 315.376 817.391 313.033C817.391 312.979 817.367 312.909 817.352 312.855C816.882 310.921 816.396 309.002 815.865 307.09C812.134 293.186 807.702 279.567 802.6 266.28C791.625 237.647 777.566 210.548 760.818 185.376C753.072 173.723 744.74 162.486 735.884 151.703C715.644 127.047 692.615 104.773 667.28 85.3585C621.143 49.9896 567.345 24.1008 508.823 10.6053C486.679 5.51073 463.865 2.17346 440.527 0.763024C440.473 0.755317 440.427 0.755317 440.373 0.755317C439.278 0.685951 438.184 0.624293 437.089 0.570341C431 0.254341 424.896 0.0693658 418.745 0.0154146H418.507C417.952 0.00770732 417.404 0 416.857 0.00770732C416.302 0 415.747 0 415.192 0C414.66 0 414.121 0 413.589 0.00770732C413.05 0 412.518 0.00770732 411.978 0.0154146C404.456 0.0693658 396.98 0.323707 389.557 0.778439C379.723 1.38732 369.973 2.32761 360.331 3.61473C347.213 5.34117 334.279 7.6919 321.578 10.6284C263.055 24.1239 209.272 49.9974 163.143 85.3585C137.809 104.766 114.786 127.04 94.5543 151.688C85.6907 162.47 77.359 173.715 69.6053 185.369C53.6817 209.292 40.1859 234.965 29.4494 262.033C28.7557 263.783 28.0776 265.54 27.407 267.305C20.5782 285.255 14.9518 303.807 10.6433 322.852C8.82434 330.875 7.24426 338.983 5.89545 347.168C2.28839 369.18 0.407776 391.778 0.407776 414.808H0.400024Z" fill="#DFE0D6"/>
<path d="M0.400024 414.808C0.400024 418.168 0.438599 421.513 0.523376 424.85C2.07257 425.374 3.62946 425.891 5.19409 426.407C5.19409 426.407 5.2121 426.412 5.24805 426.423C26.6363 433.452 49.1959 439.949 72.827 445.853C171.768 470.57 289.229 484.875 415.2 484.875C573.45 484.875 718.265 462.285 829.869 424.85C829.877 424.804 829.877 424.758 829.877 424.712C829.923 423.193 829.946 421.675 829.961 420.164C829.985 418.569 830 416.973 830 415.378V414.561C830 412.788 829.985 411.031 829.961 409.274C829.931 406.877 829.877 404.495 829.815 402.129C829.769 400.696 829.715 399.262 829.661 397.829C829.607 396.503 829.553 395.193 829.484 393.867C829.422 392.665 829.353 391.447 829.283 390.245C828.543 377.666 827.256 365.234 825.414 352.995C825.337 352.425 825.244 351.854 825.16 351.284C824.959 349.966 824.751 348.648 824.535 347.33C824.32 346.02 824.104 344.71 823.873 343.399C823.649 342.112 823.426 340.833 823.187 339.561C823.009 338.582 822.824 337.604 822.639 336.632C822.447 335.6 822.246 334.575 822.038 333.549C822.023 333.449 822 333.349 821.977 333.249C821.792 332.324 821.607 331.407 821.414 330.482C821.206 329.472 820.99 328.463 820.774 327.461C820.597 326.636 820.42 325.811 820.235 324.994C820.104 324.393 819.965 323.784 819.826 323.183C819.803 323.052 819.772 322.921 819.741 322.79C819.533 321.881 819.325 320.963 819.109 320.054C818.57 317.711 817.992 315.376 817.391 313.033C817.391 312.979 817.367 312.909 817.352 312.855C816.882 310.921 816.396 309.002 815.865 307.09C814.701 302.743 813.468 298.427 812.165 294.142C811.903 293.279 811.641 292.423 811.371 291.568C811.109 290.712 810.839 289.857 810.569 289.009C810.292 288.153 810.022 287.298 809.745 286.45C809.467 285.602 809.19 284.754 808.905 283.907C808.627 283.059 808.342 282.211 808.057 281.363C807.201 278.828 806.315 276.3 805.398 273.787C804.496 271.267 803.563 268.77 802.6 266.28C784.834 269.586 756.902 254.195 736.755 263.012C708.137 275.544 713.486 305.641 676.221 314.505C634.824 324.355 563.707 291.468 514.526 295.714C482.609 298.474 449.367 354.76 415.215 354.76C390.39 354.76 330.341 320.47 306.633 318.99C268.674 316.624 268.057 345.958 234.029 340.193C214.744 336.933 217.134 336.301 199.437 332.07C187.56 329.233 141.285 283.005 116.952 275.945C95.7413 269.787 53.2424 279.167 27.3993 267.305C26.9754 268.43 26.5515 269.548 26.1353 270.673C25.9041 271.298 25.6728 271.922 25.4493 272.546C25.1333 273.394 24.825 274.242 24.532 275.09C24.4318 275.367 24.3317 275.637 24.2316 275.914C23.9155 276.801 23.5995 277.695 23.2989 278.589C23.0368 279.329 22.7748 280.076 22.5204 280.824C22.0349 282.25 21.557 283.683 21.0869 285.117C20.7092 286.257 20.3392 287.414 19.9693 288.562C19.8459 288.94 19.7303 289.309 19.6147 289.687C19.2293 290.905 18.8517 292.123 18.4817 293.34C18.4277 293.502 18.3738 293.664 18.3276 293.826C17.9576 295.028 17.6031 296.231 17.2485 297.441C17.0713 298.034 16.894 298.635 16.7244 299.237C16.4161 300.292 16.1155 301.356 15.8149 302.42C15.2908 304.293 14.7745 306.165 14.2735 308.054C13.9112 309.426 13.549 310.813 13.1944 312.193C13.1944 312.208 13.1944 312.216 13.1944 312.231C12.7936 313.788 12.4083 315.353 12.0306 316.917C11.7839 317.942 11.5374 318.975 11.2984 320.015C11.0903 320.886 10.8899 321.757 10.6972 322.636C10.6741 322.705 10.6587 322.782 10.6433 322.852C10.1654 324.948 9.71069 327.045 9.27136 329.149C8.86285 331.075 8.46973 333.01 8.0921 334.952C7.89166 335.97 7.69897 336.979 7.51404 337.997C7.28278 339.207 7.05927 340.424 6.84344 341.642C6.65076 342.721 6.45813 343.8 6.28082 344.879C6.2038 345.334 6.12665 345.796 6.04956 346.251C5.99561 346.552 5.9494 346.86 5.9032 347.168C2.28839 369.18 0.407776 391.771 0.407776 414.808H0.400024Z" fill="#B5B6AE"/>
<path d="M5.2016 426.408C3.63702 425.891 2.08014 425.375 0.530945 424.851C0.5849 427.055 0.654175 429.252 0.746704 431.448C2.95105 487.434 16.2541 540.584 38.5287 588.732C71.8942 523.32 164.415 659.708 292.227 597.133C328.429 579.406 400.463 671.639 415.208 630.729C429.112 592.131 556.015 679.901 584.841 624.786C627.733 542.788 703.813 660.333 720.577 603.954C726.389 584.408 768.957 594.312 791.902 588.724C801.082 568.893 808.735 548.214 814.716 526.834C815.071 525.578 815.417 524.322 815.757 523.058C816.165 521.532 816.573 520.006 816.967 518.472C817.799 515.204 818.601 511.913 819.371 508.599C820.859 502.132 822.2 495.612 823.387 489.03C823.672 487.442 823.942 485.847 824.212 484.267C824.404 483.157 824.582 482.032 824.767 480.922C826.74 468.659 828.166 456.197 829.029 443.595C829.098 442.439 829.175 441.291 829.245 440.142C829.383 437.846 829.499 435.541 829.607 433.229C829.653 432.08 829.707 430.932 829.746 429.768C829.799 428.127 829.853 426.493 829.884 424.851C809.043 431.842 664.475 486.533 558.466 421.437C470.239 367.262 643.217 497.6 415.662 475.396C375.175 471.442 313.546 457.237 274.986 454.385C194.119 448.405 139.836 462.586 72.8423 445.853C49.2112 439.95 26.6514 433.452 5.26324 426.423C5.23242 426.413 5.21448 426.408 5.20935 426.408H5.2016Z" fill="#E7861D"/>
<path d="M415.2 760.08C310.163 760.08 214.243 747.279 141.161 726.184C143.766 728.488 146.395 730.754 149.054 732.981C149.054 732.981 149.067 732.989 149.092 733.005C162.973 744.627 177.618 755.356 192.955 765.106C257.182 805.939 333.424 829.6 415.192 829.6C520.237 829.6 616.164 790.555 689.246 726.184C686.634 726.939 683.998 727.687 681.338 728.411C681.338 728.411 681.326 728.416 681.3 728.426C667.419 732.234 652.775 735.748 637.437 738.939C573.211 752.327 496.968 760.08 415.2 760.08Z" fill="#90887E"/>
<g opacity="0.5">
<path d="M173.286 751.787C173.286 751.787 173.255 751.764 173.24 751.756C173.24 751.771 173.263 751.779 173.271 751.787H173.286Z" fill="#90887E"/>
<path d="M115.603 701.682C121.908 708.271 128.436 714.653 135.165 720.819H135.18C137.161 722.63 139.15 724.418 141.161 726.183H141.169C214.251 747.278 310.163 760.08 415.2 760.08C496.968 760.08 573.211 752.326 637.437 738.939C652.775 735.748 667.419 732.233 681.3 728.426C681.3 728.426 681.313 728.421 681.339 728.411C683.998 727.686 686.634 726.939 689.246 726.183C698.11 718.391 706.634 710.214 714.797 701.682C628.111 714.954 525.363 722.63 415.2 722.63C305.037 722.63 202.305 714.946 115.603 701.682Z" fill="#90887E"/>
</g>
<path d="M44.2246 229.323C67.0541 247.551 97.9996 263.867 135.165 277.501H135.18C139.728 279.166 144.352 280.785 149.061 282.372C149.061 282.372 149.074 282.372 149.1 282.372C162.981 287.028 177.625 291.328 192.963 295.244C257.189 311.599 333.432 321.079 415.2 321.079C577.511 321.079 718.041 283.737 786.183 229.323C772.287 201.623 755.376 175.696 735.884 151.965C727.206 141.398 718.018 131.263 708.345 121.613C633.298 176.767 529.663 210.879 415.2 210.879C333.432 210.879 257.189 193.476 192.963 163.425C177.625 156.25 162.981 148.358 149.1 139.818C149.1 139.818 149.087 139.808 149.061 139.787C144.352 136.881 139.728 133.899 135.18 130.847H135.165C130.71 127.833 126.34 124.758 122.062 121.613C112.405 131.263 103.217 141.39 94.5466 151.957C75.039 175.672 58.1289 201.615 44.2246 229.315V229.323Z" fill="#DFE0D6"/>
<path d="M69.5975 185.369C171.976 211.435 289.815 226.287 415.185 226.287C540.554 226.287 658.401 211.443 760.818 185.376C753.072 173.723 744.74 162.486 735.884 151.703C715.644 127.047 692.615 104.773 667.28 85.3585C621.143 49.9897 567.345 24.1008 508.823 10.6053C486.679 5.51073 463.865 2.17346 440.527 0.763024C440.473 0.755317 440.427 0.755317 440.373 0.755317C439.278 0.685951 438.184 0.624293 437.089 0.570341C431 0.254341 424.896 0.0693658 418.745 0.0154146H418.507C417.952 0.00770732 417.404 0 416.857 0.00770732C416.302 0 415.747 0 415.192 0C414.66 0 414.121 0 413.589 0.00770732C413.05 0 412.518 0.00770732 411.978 0.0154146C404.456 0.0693658 396.98 0.323707 389.557 0.778439C366.319 2.20429 343.613 5.53385 321.577 10.6284C263.055 24.1239 209.272 49.9974 163.143 85.3585C137.809 104.766 114.786 127.04 94.5543 151.688C85.6907 162.47 77.3589 173.715 69.6053 185.369H69.5975Z" fill="#C06935"/>
<path d="M307.303 537.993C307.357 537.623 307.411 537.253 307.45 536.883C307.473 536.636 307.496 536.397 307.511 536.151C307.958 529.916 305.831 523.603 301.561 517.522C297.106 511.171 290.331 505.075 281.745 499.58C280.774 498.963 279.788 498.354 278.786 497.753C278.786 497.753 278.783 497.753 278.778 497.753C275.803 495.98 272.643 494.285 269.305 492.674C255.332 485.915 238.329 480.612 219.654 477.714C181.518 471.802 146.965 477.552 129.523 490.855C127.087 492.712 124.991 494.709 123.257 496.851C123.157 496.975 123.056 497.106 122.956 497.229C122.841 497.383 122.717 497.537 122.602 497.691C122.355 498.023 122.116 498.354 121.885 498.693C121.438 499.348 121.014 500.019 120.636 500.705C120.544 500.867 120.459 501.036 120.367 501.198C120.305 501.314 120.243 501.429 120.182 501.545C119.519 502.824 118.987 504.142 118.571 505.499C118.532 505.622 118.501 505.745 118.463 505.869C118.393 506.115 118.324 506.362 118.262 506.616C118.232 506.74 118.201 506.863 118.17 506.994C118.131 507.171 118.093 507.349 118.054 507.526C118.054 507.526 118.054 507.534 118.054 507.541C118.016 507.703 117.985 507.873 117.954 508.034C117.923 508.212 117.892 508.381 117.862 508.559L117.846 508.651C117.815 508.844 117.792 509.036 117.761 509.237C117.731 509.499 117.7 509.769 117.677 510.031C117.661 510.193 117.654 510.347 117.638 510.509C117.63 510.655 117.615 510.801 117.607 510.948C117.607 511.079 117.6 511.218 117.592 511.356C117.546 512.828 117.638 514.308 117.869 515.788C118.039 516.898 118.293 518.008 118.625 519.11C118.656 519.218 118.686 519.326 118.725 519.434C118.81 519.711 118.902 519.989 118.995 520.266C118.995 520.266 118.995 520.281 118.995 520.289C119.072 520.52 119.149 520.744 119.234 520.975C121.785 527.873 127.195 534.648 134.849 540.883C146.703 550.548 163.952 558.926 184.3 564.429C189.271 565.77 194.42 566.949 199.73 567.928C199.746 567.928 199.753 567.928 199.769 567.928C200.015 567.974 200.27 568.021 200.516 568.067C202.166 568.367 203.831 568.645 205.503 568.907C207.469 569.215 209.426 569.485 211.376 569.732C216.71 570.394 221.951 570.834 227.069 571.057C248.133 571.967 267.093 569.215 281.314 563.589C288.058 560.93 293.73 557.623 298.062 553.762C300.166 551.881 301.954 549.878 303.396 547.743C305.43 544.729 306.764 541.469 307.303 538.001V537.993Z" fill="#C06935"/>
<g opacity="0.2">
<path d="M142.595 633.303C142.618 633.149 142.641 632.995 142.657 632.848C142.672 632.748 142.68 632.648 142.695 632.548C142.973 629.989 142.664 627.461 141.847 625.095C140.999 622.621 139.604 620.324 137.778 618.32C137.57 618.097 137.361 617.873 137.146 617.657C136.506 617.018 135.828 616.416 135.103 615.846C132.066 613.472 128.282 611.784 124.051 611.129C115.403 609.788 107.256 613.118 102.855 619.052C102.239 619.877 101.699 620.756 101.237 621.681C101.206 621.734 101.183 621.788 101.16 621.842C101.129 621.912 101.098 621.973 101.067 622.043C100.998 622.182 100.936 622.328 100.874 622.474C100.751 622.76 100.635 623.045 100.528 623.33C100.504 623.399 100.474 623.469 100.45 623.538C100.435 623.584 100.412 623.638 100.397 623.684C100.212 624.224 100.05 624.779 99.9109 625.349C99.8955 625.403 99.8878 625.449 99.8724 625.503C99.8493 625.604 99.8262 625.711 99.803 625.812C99.7953 625.866 99.7799 625.912 99.7722 625.966C99.7568 626.043 99.7414 626.112 99.7337 626.189C99.7183 626.259 99.7105 626.328 99.6951 626.397C99.6797 626.467 99.672 626.544 99.6566 626.613V626.652C99.6412 626.729 99.6258 626.814 99.6181 626.891C99.6026 626.999 99.5872 627.106 99.5718 627.214C99.5718 627.284 99.5564 627.345 99.5487 627.415C99.5487 627.476 99.5333 627.538 99.5333 627.6C99.5333 627.654 99.5256 627.708 99.5179 627.769C99.4639 628.37 99.4485 628.979 99.4562 629.573C99.4639 630.02 99.4948 630.467 99.5333 630.914C99.5333 630.96 99.541 630.999 99.5487 631.045C99.5564 631.153 99.5718 631.268 99.5872 631.376C99.5872 631.376 99.5872 631.376 99.5872 631.384C99.595 631.477 99.6104 631.569 99.6258 631.662C100.019 634.413 101.082 637.026 102.67 639.361C105.137 642.984 108.882 645.92 113.43 647.593C114.54 648.001 115.696 648.34 116.898 648.587C116.898 648.587 116.898 648.587 116.906 648.587C116.96 648.602 117.022 648.61 117.075 648.625C117.445 648.702 117.823 648.772 118.201 648.826C118.648 648.895 119.095 648.949 119.534 648.995C120.744 649.119 121.947 649.149 123.126 649.095C127.966 648.872 132.429 647.207 135.874 644.51C137.508 643.23 138.911 641.72 140.021 640.016C140.56 639.192 141.03 638.313 141.423 637.403C141.978 636.116 142.379 634.744 142.603 633.311L142.595 633.303Z" fill="#E7861D"/>
</g>
<g opacity="0.2">
<path d="M256.55 670.491C256.58 670.298 256.603 670.105 256.634 669.913C256.65 669.782 256.665 669.658 256.681 669.535C257.035 666.298 256.634 663.107 255.609 660.117C254.538 656.988 252.773 654.082 250.461 651.546C250.199 651.261 249.937 650.984 249.659 650.706C248.857 649.897 247.994 649.134 247.077 648.417C243.239 645.419 238.452 643.284 233.103 642.459C222.174 640.764 211.869 644.972 206.297 652.479C205.518 653.527 204.832 654.637 204.254 655.801C204.224 655.87 204.185 655.939 204.154 656.009C204.116 656.094 204.077 656.178 204.031 656.263C203.946 656.44 203.869 656.625 203.784 656.803C203.63 657.157 203.484 657.519 203.345 657.889C203.314 657.974 203.283 658.067 203.245 658.151C203.222 658.213 203.198 658.275 203.175 658.336C202.936 659.022 202.736 659.724 202.566 660.44C202.551 660.51 202.536 660.571 202.52 660.633C202.489 660.764 202.466 660.895 202.435 661.026C202.42 661.096 202.405 661.157 202.397 661.227C202.381 661.319 202.358 661.412 202.343 661.504C202.343 661.504 202.343 661.504 202.343 661.512C202.328 661.597 202.312 661.689 202.297 661.774C202.281 661.866 202.266 661.959 202.25 662.051V662.098C202.227 662.198 202.212 662.298 202.197 662.398C202.173 662.537 202.158 662.676 202.143 662.807C202.135 662.891 202.127 662.976 202.112 663.053C202.104 663.13 202.096 663.207 202.089 663.284C202.089 663.354 202.073 663.423 202.073 663.493C202.004 664.256 201.981 665.019 201.996 665.774C202.004 666.344 202.042 666.907 202.096 667.47C202.096 667.523 202.104 667.577 202.112 667.631C202.127 667.77 202.143 667.909 202.158 668.055C202.158 668.055 202.158 668.055 202.158 668.063C202.173 668.179 202.189 668.294 202.204 668.41C202.705 671.886 204.039 675.2 206.058 678.152C209.179 682.73 213.92 686.445 219.662 688.564C221.064 689.081 222.529 689.505 224.047 689.821C224.047 689.821 224.047 689.821 224.055 689.821C224.124 689.836 224.194 689.852 224.271 689.867C224.741 689.959 225.219 690.044 225.697 690.121C226.259 690.206 226.822 690.283 227.385 690.337C228.918 690.491 230.437 690.53 231.924 690.46C238.044 690.183 243.686 688.079 248.04 684.657C250.106 683.038 251.879 681.127 253.289 678.977C253.968 677.928 254.569 676.826 255.062 675.67C255.763 674.036 256.272 672.302 256.55 670.491Z" fill="#E7861D"/>
</g>
<path d="M66.0137 194.64C66.6611 193.862 67.3008 193.091 67.9482 192.32C67.9482 192.32 67.9405 192.32 67.9405 192.328C67.3008 193.099 66.6611 193.869 66.0214 194.64H66.0137Z" fill="#976F3E"/>
<path d="M5.89539 347.168C23.0214 342.382 47.5927 334.636 71.9098 341.604C108.104 351.97 143.712 396.78 153.339 398.815C214.644 411.779 227.901 383.978 302.91 387.601C327.921 388.811 389.195 422.954 415.208 422.954C457.93 422.954 497.994 362.822 535.799 354.76C569.496 347.577 626.477 378.437 656.852 368.703C696.507 355.985 708.492 357.257 743.584 347.315C769.042 340.101 800.789 352.625 825.414 352.995C825.337 352.425 825.244 351.854 825.16 351.284C824.959 349.966 824.751 348.648 824.535 347.33C824.32 346.02 824.104 344.71 823.873 343.399C823.649 342.112 823.426 340.833 823.187 339.561C823.009 338.582 822.824 337.604 822.639 336.632C822.447 335.6 822.246 334.575 822.038 333.549C822.023 333.449 822 333.349 821.977 333.249C821.792 332.324 821.607 331.407 821.414 330.482C821.206 329.472 820.99 328.463 820.774 327.461C820.597 326.636 820.42 325.811 820.235 324.994C820.104 324.393 819.965 323.784 819.826 323.183C819.803 323.052 819.772 322.921 819.741 322.79C819.533 321.881 819.325 320.963 819.109 320.054C818.57 317.711 817.992 315.376 817.391 313.033C817.391 312.979 817.367 312.909 817.352 312.855C816.882 310.921 816.396 309.002 815.865 307.09C814.701 302.743 813.468 298.427 812.165 294.142C811.903 293.279 811.641 292.423 811.371 291.568C811.109 290.712 810.839 289.857 810.569 289.009C810.292 288.153 810.022 287.298 809.745 286.45C809.467 285.602 809.19 284.754 808.905 283.907C808.627 283.059 808.342 282.211 808.057 281.363C807.194 278.828 806.307 276.307 805.398 273.787C804.488 271.274 803.556 268.77 802.6 266.28C784.834 269.586 756.902 254.195 736.755 263.012C708.137 275.544 713.486 305.641 676.221 314.505C634.824 324.355 563.707 291.468 514.526 295.714C482.609 298.473 449.367 354.76 415.215 354.76C390.39 354.76 330.341 320.47 306.633 318.99C268.674 316.624 268.057 345.958 234.029 340.193C214.744 336.933 217.134 336.301 199.437 332.07C187.56 329.233 141.285 283.005 116.952 275.945C95.7412 269.787 53.2423 279.167 27.3992 267.305C26.9753 268.43 26.5514 269.548 26.1351 270.673C25.9039 271.298 25.6727 271.922 25.4492 272.546C25.1332 273.394 24.8248 274.242 24.5319 275.09C24.4318 275.367 24.3317 275.637 24.2314 275.914C23.9155 276.801 23.5994 277.695 23.2988 278.589C23.0367 279.329 22.7747 280.076 22.5203 280.824C22.0347 282.25 21.5569 283.683 21.0867 285.117C20.709 286.257 20.3392 287.414 19.9692 288.562C19.8459 288.94 19.7302 289.309 19.6146 289.687C19.2292 290.905 18.8516 292.123 18.4816 293.34C18.4277 293.502 18.3737 293.664 18.3275 293.826C17.9575 295.028 17.603 296.231 17.2484 297.441C17.0712 298.034 16.8939 298.635 16.7243 299.237C16.416 300.292 16.1155 301.356 15.8149 302.42C15.2908 304.293 14.7744 306.165 14.2734 308.054C13.9111 309.426 13.5488 310.813 13.1943 312.193C13.1943 312.208 13.1943 312.216 13.1943 312.231C12.7935 313.788 12.4081 315.353 12.0305 316.917C11.7838 317.942 11.5372 318.975 11.2983 320.015C11.0902 320.886 10.8898 321.757 10.6971 322.636C10.674 322.705 10.6586 322.782 10.6432 322.852C10.1653 324.948 9.71057 327.045 9.27124 329.149C8.86273 331.075 8.46967 333.01 8.09198 334.952C7.8916 335.962 7.69891 336.979 7.51392 337.997C7.28271 339.207 7.0592 340.424 6.84338 341.642C6.6507 342.721 6.45801 343.8 6.28076 344.879C6.20367 345.334 6.12653 345.796 6.0495 346.251C5.99554 346.559 5.94934 346.86 5.89539 347.168Z" fill="#CC9757"/>
<path d="M776.063 210.107C779.601 216.327 782.977 222.64 786.191 229.052H786.198C782.984 222.632 779.609 216.32 776.063 210.107Z" fill="#A67F4F"/>
<path d="M87.3709 160.681C87.9798 159.903 88.5811 159.132 89.1899 158.361C89.1899 158.361 89.1822 158.361 89.1822 158.369C88.581 159.14 87.9798 159.91 87.3787 160.681H87.3709Z" fill="#A67F4F"/>
<path d="M12.3311 315.714C22.5049 320.731 57.9901 296.985 92.9125 307.637C126.887 318.003 160.322 362.813 169.363 364.848C226.914 377.812 239.362 350.011 309.785 353.634C333.262 354.844 390.79 388.987 415.215 388.987C455.325 388.987 492.937 328.847 528.43 320.793C560.069 313.61 613.559 344.47 642.084 334.728C679.311 322.018 690.564 323.282 723.506 313.34C754.174 304.083 794.546 327.321 818.084 315.714C817.868 314.82 817.645 313.926 817.414 313.024C817.414 312.97 817.391 312.901 817.375 312.847C816.905 310.912 816.419 308.993 815.888 307.082C808.589 279.859 798.6 253.747 786.198 229.045C770.922 241.246 739.075 218.794 717.093 229.045C690.225 241.577 695.25 271.666 660.266 280.538C621.405 290.388 554.636 257.5 508.46 261.747C478.494 264.506 447.278 320.793 415.223 320.793C391.916 320.793 335.536 286.503 313.284 285.023C277.645 282.657 277.067 311.991 245.12 306.226C227.015 302.958 229.258 302.334 212.648 298.103C201.495 295.259 158.056 249.038 135.211 241.978C112.366 234.918 67.0848 247.273 44.2554 229.037C38.8679 239.781 33.9351 250.78 29.4725 262.032C22.5974 279.382 16.8553 297.309 12.3465 315.714H12.3311Z" fill="#C06935"/>
<path d="M163.135 85.3585C172.754 88.4954 182.697 91.4473 192.963 94.2142C257.182 111.563 333.432 121.621 415.192 121.621C510.017 121.621 597.412 108.103 667.28 85.3585C621.143 49.9896 567.345 24.1008 508.823 10.6053C486.679 5.51073 463.865 2.17346 440.527 0.763024C440.473 0.755317 440.427 0.755317 440.373 0.755317C439.278 0.685951 438.184 0.624293 437.089 0.570341C430.923 0.246634 424.734 0.0616585 418.507 0.0154146C417.404 0 416.302 0 415.2 0H415.192C414.121 0 413.042 0 411.971 0.0154146C404.448 0.0693658 396.972 0.323707 389.55 0.778439C366.312 2.20429 343.606 5.53385 321.57 10.6284C263.047 24.1239 209.265 49.9974 163.135 85.3585Z" fill="#90887E"/>
<g opacity="0.2">
<path d="M352.631 824.906C373.033 827.997 393.927 829.6 415.2 829.6C582.19 829.6 726.127 730.931 791.887 588.723C801.066 568.892 808.72 548.214 814.701 526.833C815.055 525.577 815.402 524.321 815.741 523.057C816.15 521.531 816.558 520.005 816.951 518.471C817.784 515.203 818.585 511.912 819.356 508.598C820.844 502.132 822.185 495.611 823.372 489.029C823.657 487.441 823.927 485.846 824.196 484.266C824.389 483.156 824.566 482.031 824.751 480.921C826.724 468.659 828.15 456.196 829.013 443.595C829.083 442.438 829.16 441.29 829.229 440.142C829.368 437.845 829.484 435.54 829.592 433.228C829.638 432.08 829.692 430.931 829.73 429.768C829.784 428.126 829.838 426.492 829.869 424.85C829.877 424.804 829.877 424.758 829.877 424.712C829.923 423.193 829.946 421.675 829.961 420.164C829.985 418.569 830 416.973 830 415.378V414.561C830 412.788 829.985 411.031 829.961 409.274C829.931 406.877 829.877 404.495 829.815 402.129C829.769 400.696 829.715 399.262 829.661 397.828C829.607 396.503 829.553 395.193 829.484 393.867C829.422 392.665 829.353 391.447 829.283 390.244C828.543 377.666 827.256 365.234 825.414 352.995C825.337 352.425 825.244 351.854 825.16 351.284C823.695 341.665 821.876 332.17 819.741 322.79C819.533 321.881 819.325 320.963 819.109 320.054C818.57 317.711 817.992 315.376 817.391 313.033C817.391 312.979 817.367 312.909 817.352 312.855C816.882 310.921 816.396 309.002 815.865 307.09C812.134 293.186 807.702 279.567 802.6 266.28C791.625 237.647 777.566 210.548 760.818 185.376C753.072 173.723 744.74 162.486 735.884 151.703C715.644 127.047 692.615 104.773 667.28 85.3585C621.143 49.9896 567.345 24.1008 508.822 10.6053C486.679 5.51073 463.865 2.17346 440.527 0.763024C440.473 0.755317 440.427 0.755317 440.373 0.755317C439.278 0.685951 438.184 0.624293 437.089 0.570341C431 0.254341 424.896 0.0693658 418.745 0.0154146H418.506C417.952 0.00770732 417.404 0 416.857 0.00770732C416.302 0 415.747 0 415.192 0C414.66 0 414.121 0 413.589 0.00770732C413.05 0 412.518 0.00770732 411.978 0.0154146C404.456 0.0693658 396.98 0.323707 389.557 0.778439C379.723 1.38732 369.973 2.32761 360.331 3.61473C446.646 26.9833 522.056 76.9036 577.211 144.096C614.946 190.008 643.21 243.99 659.049 303.075C659.58 305.025 660.089 306.982 660.567 308.963C660.582 309.017 660.605 309.086 660.605 309.148C661.214 311.545 661.816 313.934 662.363 316.331C664.829 326.829 666.91 337.48 668.552 348.278C670.571 361.365 671.982 374.668 672.776 388.14C672.845 389.366 672.914 390.614 672.976 391.84C673.045 393.196 673.107 394.537 673.161 395.894C673.215 397.366 673.269 398.83 673.307 400.295C673.377 402.723 673.438 405.15 673.469 407.601C673.492 409.405 673.508 411.201 673.508 413.012V413.852C673.508 415.478 673.492 417.112 673.469 418.746C673.454 420.295 673.423 421.844 673.377 423.401C673.338 425.128 673.284 426.847 673.23 428.573C673.192 429.76 673.138 430.939 673.092 432.111C672.976 434.477 672.853 436.835 672.722 439.186C672.645 440.357 672.567 441.537 672.498 442.716C671.612 455.61 670.155 468.358 668.136 480.906C667.943 482.039 667.766 483.187 667.565 484.328C667.296 485.939 667.018 487.572 666.725 489.199C665.507 495.935 664.135 502.602 662.617 509.215C661.831 512.606 661.006 515.974 660.151 519.319C659.75 520.891 659.334 522.448 658.918 524.013C658.571 525.307 658.216 526.587 657.854 527.874C617.012 673.789 500.144 787.95 352.639 824.906H352.631Z" fill="#6E5944"/>
</g>
</g>
<defs>
<clipPath id="clip0_164_353">
<rect width="829.6" height="829.6" fill="white" transform="matrix(-1 0 0 1 830 0)"/>
</clipPath>
</defs>
</svg>
