<svg width="41" height="41" viewBox="0 0 41 41" fill="none" xmlns="http://www.w3.org/2000/svg">
<g clip-path="url(#clip0_164_383)">
<path d="M0.799892 20.1002C0.799892 20.1473 0.799892 20.1943 0.799892 20.2414C0.801636 20.464 0.806862 20.6853 0.81601 20.9066C0.862625 22.0863 1.01075 23.2399 1.25254 24.3586C1.31789 24.6645 1.39064 24.9677 1.4708 25.2678C2.47019 29.037 4.53824 32.3719 7.32991 34.9287C7.55036 35.13 7.77472 35.3264 8.00257 35.5181C8.00257 35.5181 8.00329 35.5186 8.00474 35.5194C8.67696 36.0823 9.38707 36.602 10.1303 37.0747C12.5112 38.5886 15.2323 39.6149 18.1537 40.0144C19.0512 40.1368 19.9674 40.2 20.8988 40.2C30.1194 40.2 37.8889 33.9921 40.2575 25.5288C40.2745 25.4678 40.2915 25.4068 40.3081 25.3458C40.315 25.3201 40.3216 25.2948 40.3281 25.2691C40.3412 25.2208 40.3538 25.172 40.3665 25.1236C40.407 24.9651 40.4457 24.8061 40.4832 24.6453C40.505 24.5503 40.5263 24.4549 40.5468 24.3595C40.5939 24.1399 40.6374 23.9195 40.6779 23.6969C40.6915 23.6202 40.7045 23.5427 40.7176 23.466C40.7267 23.4124 40.7355 23.358 40.7446 23.3044C40.8404 22.7097 40.9093 22.1059 40.9511 21.4952C40.9546 21.4394 40.9585 21.3836 40.9616 21.3279C40.9681 21.2168 40.9742 21.1052 40.9794 20.9933C40.9812 20.9375 40.9838 20.8818 40.986 20.8251C40.9886 20.7432 40.9912 20.6622 40.9929 20.5803C40.9951 20.5067 40.9964 20.4335 40.9968 20.3599C40.9982 20.2828 40.999 20.2052 40.999 20.1281V20.0885C40.999 20.0026 40.9982 19.9177 40.9968 19.8323C40.9955 19.7164 40.9929 19.601 40.9899 19.4864C40.9877 19.4167 40.9851 19.3474 40.9825 19.2777C40.9799 19.2137 40.9772 19.1501 40.9742 19.0856C40.9707 19.0272 40.9677 18.9684 40.9642 18.91C40.9267 18.2723 40.86 17.6423 40.7642 17.0224C40.6862 16.5109 40.5882 16.0065 40.4714 15.509C40.4453 15.3957 40.417 15.282 40.3882 15.1687C40.3882 15.1661 40.3869 15.1631 40.3861 15.1604C40.363 15.0663 40.3394 14.9735 40.3142 14.8812C39.564 12.083 38.2252 9.52581 36.4382 7.35107C33.8347 4.17958 30.2784 1.81969 26.2077 0.708359C25.9524 0.638655 25.6954 0.573744 25.4366 0.514061C24.3108 0.255288 23.1494 0.0901785 21.9605 0.0278813C21.6089 0.00958419 21.2556 0 20.8997 0C19.3392 0 17.8205 0.178614 16.3628 0.515368C15.7529 0.656081 15.1538 0.82424 14.5666 1.01897C10.9241 2.22702 7.74422 4.4488 5.36206 7.35064C4.05031 8.94597 2.98078 10.7469 2.20705 12.6977C1.29959 14.9892 0.799892 17.4863 0.799892 20.1002Z" fill="#D15733"/>
<path opacity="0.5" d="M3.67442 17.8606C7.357 18.6417 6.85469 11.2205 10.8723 7.70525C14.8899 4.19003 20.6967 5.75618 17.0102 4.07851C13.8034 2.61866 24.5357 2.08587 26.2078 0.708359C25.9525 0.638655 25.6954 0.573744 25.4367 0.514061C24.3109 0.255288 23.1495 0.0901785 21.9606 0.0278813C21.609 0.00958419 21.2557 0 20.8998 0C19.3392 0 17.8205 0.178614 16.3628 0.515368C15.7529 0.656081 15.1539 0.82424 14.5666 1.01897C13.4832 2.37557 11.7536 4.11467 9.70039 4.63613C6.18509 5.5292 4.28825 8.59789 3.67442 10.8297C3.06058 13.0619 -0.00860405 17.0795 3.67442 17.8606Z" fill="#A23122"/>
<path d="M3.77545 30.6289C4.75785 32.2234 5.95634 33.6701 7.33039 34.9283H7.33082C7.55127 35.1296 7.77563 35.326 8.00391 35.5177C8.00391 35.5177 8.00449 35.5181 8.00566 35.519C8.67787 36.0819 9.38799 36.6016 10.1312 37.0743C12.5121 38.5881 15.2332 39.6145 18.1547 40.014C19.0521 40.1364 19.9683 40.1996 20.8997 40.1996C28.1407 40.1996 34.486 36.3716 38.0244 30.6293C33.1704 33.3116 31.6525 35.9451 25.285 35.9451C23.8961 35.9451 15.8662 36.6086 14.5283 36.4639C10.1717 35.9917 8.39208 32.981 4.84193 31.1922C4.48078 31.0101 4.12528 30.8223 3.77501 30.6289H3.77545Z" fill="#B3432F"/>
<path opacity="0.5" d="M0.800365 20.2422C0.802109 20.4648 0.807337 20.6861 0.816484 20.9074C1.03475 26.454 3.50186 31.423 7.33039 34.9295C7.55083 35.1308 7.77519 35.3273 8.00304 35.5189C8.00304 35.5189 8.00377 35.5194 8.00522 35.5203C8.67743 36.0831 9.38755 36.6028 10.1308 37.0755C12.5116 38.5894 15.2327 39.6158 18.1542 40.0152C21.6948 38.7135 31.0339 34.8411 24.6781 32.2564C16.9387 29.1089 15.2876 31.0179 10.0249 25.8071C4.76221 20.5959 5.22661 28.0773 2.95642 23.8981C2.20709 22.5184 1.43511 21.161 0.799931 20.2422H0.800365Z" fill="#9E2B21"/>
<path opacity="0.1" d="M5.90636 6.72656C6.81906 6.88949 8.01972 7.03674 9.44257 7.16047H9.44344C9.62859 7.17746 9.8181 7.1927 10.0111 7.20839H10.012C12.9587 7.4432 16.7563 7.58478 20.9003 7.58478C27.3985 7.58478 33.0428 7.23714 35.8942 6.72656C36.0127 6.85987 36.1308 6.99448 36.2471 7.13041C32.8991 7.67104 27.2743 8.02609 20.9007 8.02609C16.3621 8.02609 12.2037 7.84573 8.97598 7.54601H8.97424C8.76338 7.52728 8.55601 7.5068 8.35256 7.48633H8.35169C7.30133 7.37959 6.36119 7.26023 5.55435 7.12953C5.6698 6.99361 5.78743 6.85987 5.9068 6.72656H5.90636Z" fill="#2B3169"/>
<path opacity="0.1" d="M3.60524 9.85715L4.11234 9.05469C4.54102 9.12308 4.98844 9.18887 5.45372 9.25116H5.45459C5.70378 9.28689 5.95995 9.31869 6.2196 9.35093H6.22134C10.1936 9.83928 15.313 10.1347 20.9003 10.1347C27.5353 10.1347 33.5099 9.71948 37.6882 9.05599C37.8668 9.32261 38.0376 9.59314 38.2014 9.86891C33.7037 10.6025 27.6094 11.0543 20.9003 11.0543C14.7811 11.0543 9.17507 10.6788 4.82376 10.0545H4.82114C4.53666 10.0153 4.25741 9.97259 3.98338 9.9299H3.98251C3.85268 9.90942 3.7246 9.88895 3.59826 9.86847L3.60524 9.85758V9.85715Z" fill="#2B3169"/>
<path opacity="0.1" d="M20.9007 25.0817C28.3195 25.0817 35.1436 24.812 40.5479 24.3602C40.5274 24.4557 40.506 24.5511 40.4842 24.646C40.4468 24.8068 40.408 24.9658 40.3675 25.1244C40.3549 25.1727 40.3422 25.2215 40.3292 25.2699C34.7824 25.7312 28.0964 26.0013 20.9007 26.0013C13.705 26.0013 7.01859 25.7312 1.4714 25.2686C1.39124 24.9684 1.31849 24.6652 1.25314 24.3594C6.65743 24.8107 13.482 25.0817 20.9007 25.0817Z" fill="#2B3169"/>
<path opacity="0.1" d="M2.56798 11.7891C2.69258 11.8043 2.81805 11.8191 2.94526 11.8335H2.947C3.23715 11.8684 3.5347 11.9002 3.83574 11.9315H3.83835C8.45628 12.4199 14.4064 12.7126 20.9003 12.7126C28.0076 12.7126 34.4622 12.3615 39.2322 11.7895C39.3594 12.0679 39.4797 12.3489 39.5942 12.6342C34.5359 13.255 28.0159 13.6284 20.9003 13.6284C13.7848 13.6284 7.27087 13.255 2.21423 12.6342H2.21074C2.21074 12.6342 2.20639 12.6333 2.20464 12.6333C2.31922 12.3489 2.44033 12.067 2.56755 11.7891H2.56798Z" fill="#2B3169"/>
<path opacity="0.1" d="M10.1314 37.0605C13.2437 39.0392 16.9376 40.1858 20.8999 40.1858C30.1205 40.1858 37.8895 33.9778 40.2586 25.5146C40.2756 25.4536 40.2926 25.3926 40.3092 25.3316C40.3288 25.2575 40.3484 25.1835 40.3675 25.1094C40.4089 24.9509 40.4477 24.791 40.4843 24.6311C40.5562 24.3179 40.6211 24.002 40.679 23.6827C40.693 23.606 40.706 23.5285 40.7191 23.4518C40.7283 23.3982 40.737 23.3438 40.7461 23.2897C40.8411 22.6946 40.9099 22.0917 40.9526 21.4805C40.9561 21.4247 40.96 21.369 40.9631 21.3132C40.9696 21.2017 40.9757 21.0902 40.9809 20.9782C40.9831 20.9224 40.9857 20.8667 40.9875 20.8105C40.9901 20.7286 40.9927 20.6471 40.9949 20.5652C40.9971 20.4916 40.9984 20.4184 40.9988 20.3448C41.0001 20.2672 41.001 20.1901 41.001 20.1126V20.0734C41.001 19.9876 41.0001 19.9022 40.9988 19.8172C40.9975 19.7013 40.9949 19.5859 40.9914 19.4713C40.9892 19.402 40.9866 19.3323 40.984 19.2631C40.9814 19.199 40.9788 19.1354 40.9753 19.071C40.9722 19.0126 40.9687 18.9538 40.9653 18.8954C40.9278 18.2576 40.8611 17.6277 40.7653 17.0077C40.6873 16.4963 40.5888 15.9918 40.4721 15.4943C40.446 15.381 40.4176 15.2673 40.3889 15.1541C40.3889 15.1515 40.3876 15.148 40.3867 15.1454C40.3636 15.0517 40.3401 14.9585 40.3148 14.8661C39.5651 12.068 38.2259 9.51116 36.4388 7.33643C33.672 3.96671 29.8295 1.51316 25.4368 0.499851C24.3115 0.241078 23.15 0.0759691 21.9607 0.0136719C27.1803 3.50014 30.6869 9.3491 30.95 16.0323C30.9613 16.3016 30.9652 16.5717 30.9652 16.8439C30.9652 19.4735 30.4638 21.9872 29.5494 24.293C26.5839 31.777 19.2806 37.0696 10.74 37.0696C10.537 37.0696 10.3335 37.0661 10.1318 37.0605H10.1314Z" fill="#2B3169"/>
</g>
<defs>
<clipPath id="clip0_164_383">
<rect width="40.2" height="40.2" fill="white" transform="matrix(-1 0 0 1 41 0)"/>
</clipPath>
</defs>
</svg>
