<svg width="29" height="29" viewBox="0 0 29 29" fill="none" xmlns="http://www.w3.org/2000/svg">
<g clip-path="url(#clip0_164_414)">
<path d="M14.4352 28.9011C22.4036 28.9011 28.8632 22.4629 28.8632 14.5209C28.8632 6.57888 22.4036 0.140625 14.4352 0.140625C6.46692 0.140625 0.00732422 6.57888 0.00732422 14.5209C0.00732422 22.4629 6.46692 28.9011 14.4352 28.9011Z" fill="#CCCCCC"/>
<path d="M2.23969 22.2077C2.23969 22.2077 2.01301 20.4591 3.93658 20.2607C5.86015 20.0622 7.31963 19.9302 8.18188 20.2607C9.04412 20.5911 8.24813 22.3695 9.57479 22.2077C10.9014 22.0458 15.0805 21.1256 16.2084 21.4865C17.3363 21.8474 16.8053 20.0622 18.9945 19.7318C21.1838 19.4013 22.4438 19.0705 24.6993 19.2689C26.9548 19.4673 28.0778 19.209 28.0778 19.209C28.0778 19.209 27.452 22.2773 24.5425 24.7813C23.9939 25.2533 20.1884 27.0704 18.9942 26.3431C17.8001 25.6158 17.6676 25.1529 17.7338 25.1529C17.8001 25.1529 16.5397 24.2346 16.0756 24.5285C15.6115 24.8224 12.1618 26.3428 10.9677 25.2189C9.77354 24.0951 8.24813 24.3006 8.24813 24.5285C8.24813 24.7564 7.25306 25.8802 6.52331 25.6818C5.79357 25.4834 5.3126 25.6618 5.3126 25.6618C5.3126 25.6618 3.32278 24.5165 2.23937 22.2073L2.23969 22.2077Z" fill="#B4B4B4"/>
<path d="M0.184906 16.7816C2.49592 16.7904 4.4013 14.5834 5.72796 15.4053C7.05462 16.2271 9.57542 16.8732 12.0962 16.7816C14.617 16.69 15.1477 15.9145 18.1326 15.9718C21.1175 16.029 26.1591 16.1611 26.8223 17.2853C27.4854 18.4095 28.6439 17.0283 28.6439 17.0283C28.6439 17.0283 29.2434 15.5995 28.6078 11.8152C28.4217 10.7076 24.0361 14.6407 22.046 12.9216C20.0558 11.2025 15.4124 11.5783 14.0857 11.9195C12.7591 12.2606 11.9465 13.434 10.9765 13.4589C10.0064 13.4839 3.98658 13.8309 3.38934 13.5829C2.7921 13.335 0.184582 13.31 0.0618214 13.257C-0.060939 13.2039 0.00693645 16.7813 0.184582 16.7819L0.184906 16.7816Z" fill="#B4B4B4"/>
<path d="M14.4219 0.00110314C14.4219 0.00110314 7.07677 -0.235191 2.65967 6.20883L6.36294 6.19426C6.36294 6.19426 9.86421 5.04095 10.4757 3.85269C11.0869 2.66475 14.4216 2.56214 14.4216 2.56214C14.4216 2.56214 17.7563 2.66442 18.3675 3.85269C18.9787 5.04095 22.4803 6.19426 22.4803 6.19426H26.1998C22.328 -0.119633 14.4219 0.00110314 14.4219 0.00110314Z" fill="#B4B4B4"/>
<path d="M6.15289 18.8433C6.52506 18.8433 6.82677 18.5426 6.82677 18.1717C6.82677 17.8007 6.52506 17.5 6.15289 17.5C5.78071 17.5 5.479 17.8007 5.479 18.1717C5.479 18.5426 5.78071 18.8433 6.15289 18.8433Z" fill="#E6E6E5"/>
<path d="M18.3006 27.6966C18.4941 27.6966 18.651 27.5402 18.651 27.3473C18.651 27.1544 18.4941 26.998 18.3006 26.998C18.1071 26.998 17.9502 27.1544 17.9502 27.3473C17.9502 27.5402 18.1071 27.6966 18.3006 27.6966Z" fill="#E6E6E5"/>
<path d="M21.4989 3.45438C21.6924 3.45438 21.8493 3.29801 21.8493 3.10512C21.8493 2.91223 21.6924 2.75586 21.4989 2.75586C21.3053 2.75586 21.1484 2.91223 21.1484 3.10512C21.1484 3.29801 21.3053 3.45438 21.4989 3.45438Z" fill="#E6E6E5"/>
<path d="M16.9219 15.2191C17.6363 15.2191 18.2155 14.6419 18.2155 13.9299C18.2155 13.2178 17.6363 12.6406 16.9219 12.6406C16.2076 12.6406 15.6284 13.2178 15.6284 13.9299C15.6284 14.6419 16.2076 15.2191 16.9219 15.2191Z" fill="#999999"/>
<path d="M15.1398 1.60023C15.3646 1.60023 15.5468 1.41864 15.5468 1.19465C15.5468 0.970648 15.3646 0.789062 15.1398 0.789062C14.9151 0.789062 14.7329 0.970648 14.7329 1.19465C14.7329 1.41864 14.9151 1.60023 15.1398 1.60023Z" fill="#999999"/>
<path d="M10.6781 27.3511C11.0216 27.3511 11.3 27.0735 11.3 26.7312C11.3 26.3889 11.0216 26.1113 10.6781 26.1113C10.3346 26.1113 10.0562 26.3889 10.0562 26.7312C10.0562 27.0735 10.3346 27.3511 10.6781 27.3511Z" fill="#999999"/>
<path d="M22.4277 24.3599C23.5177 24.3599 24.4013 23.4792 24.4013 22.3928C24.4013 21.3065 23.5177 20.4258 22.4277 20.4258C21.3377 20.4258 20.4541 21.3065 20.4541 22.3928C20.4541 23.4792 21.3377 24.3599 22.4277 24.3599Z" fill="#999999"/>
<path d="M9.80755 11.4004C11.0165 11.4004 11.9965 10.4237 11.9965 9.21878C11.9965 8.01388 11.0165 7.03711 9.80755 7.03711C8.59866 7.03711 7.61865 8.01388 7.61865 9.21878C7.61865 10.4237 8.59866 11.4004 9.80755 11.4004Z" fill="#E6E6E5"/>
<path d="M4.34476 11.4013C4.68322 11.4013 4.95759 11.1278 4.95759 10.7905C4.95759 10.4532 4.68322 10.1797 4.34476 10.1797C4.00631 10.1797 3.73193 10.4532 3.73193 10.7905C3.73193 11.1278 4.00631 11.4013 4.34476 11.4013Z" fill="#E6E6E5"/>
<path d="M23.7874 11.6158C24.3644 11.6158 24.8322 11.1496 24.8322 10.5745C24.8322 9.99941 24.3644 9.5332 23.7874 9.5332C23.2104 9.5332 22.7427 9.99941 22.7427 10.5745C22.7427 11.1496 23.2104 11.6158 23.7874 11.6158Z" fill="#999999"/>
<path opacity="0.2" d="M28.8147 13.3393C28.8147 13.3393 28.8144 13.3363 28.8144 13.3351C28.7686 12.8783 28.702 12.3737 28.6088 11.8182C28.6085 11.8173 28.6085 11.816 28.6081 11.815C28.6078 11.814 28.6078 11.8127 28.6075 11.8118C28.2129 9.74663 27.375 7.83847 26.1964 6.18863C26.1964 6.18798 26.1955 6.18733 26.1951 6.18668C23.4028 1.64046 18.5184 0.434393 16.0093 0.115234C16.0651 0.157638 16.1203 0.200365 16.1756 0.243739C18.0215 1.68707 19.5813 3.47708 20.7563 5.51568C21.0603 6.04264 21.3383 6.58644 21.589 7.14513C22.4493 9.06234 22.9868 11.155 23.132 13.3545C23.1586 13.7555 23.1719 14.1598 23.1719 14.5673C23.1719 15.1186 23.1472 15.6643 23.0989 16.2033C23.0063 17.2413 22.8261 18.2545 22.5656 19.2353C21.868 21.8633 20.5953 24.258 18.8896 26.2778C18.117 27.1929 17.2557 28.0306 16.3188 28.7783C19.5037 28.3646 22.362 26.9158 24.5431 24.781C27.4526 22.277 28.0784 19.2087 28.0784 19.2087C28.322 18.505 28.5123 17.7764 28.6442 17.028C28.6442 17.028 29.0797 15.99 28.8147 13.3393Z" fill="black"/>
<path d="M8.18253 3.90565C8.62663 3.90565 8.98664 3.54682 8.98664 3.10419C8.98664 2.66156 8.62663 2.30273 8.18253 2.30273C7.73843 2.30273 7.37842 2.66156 7.37842 3.10419C7.37842 3.54682 7.73843 3.90565 8.18253 3.90565Z" fill="#999999"/>
</g>
<defs>
<clipPath id="clip0_164_414">
<rect width="28.9" height="28.9" fill="white"/>
</clipPath>
</defs>
</svg>
