<svg width="293" height="293" viewBox="0 0 293 293" fill="none" xmlns="http://www.w3.org/2000/svg">
<g clip-path="url(#clip0_164_343)">
<g clip-path="url(#clip1_164_343)">
<path d="M-0.000793457 146.169C-0.000793457 148.131 0.036377 150.081 0.116913 152.025C1.20709 179.669 9.98428 205.332 24.3735 226.951C30.9579 236.851 38.7255 245.903 47.4655 253.902H47.4717C49.0698 255.363 50.6989 256.793 52.359 258.186C52.359 258.186 52.3631 258.188 52.3714 258.192C76.2315 278.159 106.565 290.653 139.766 292.064C141.865 292.157 143.978 292.201 146.096 292.201C207.19 292.201 259.525 254.725 281.341 201.518C288.34 184.449 292.199 165.758 292.199 146.169V145.921C292.187 138.405 291.605 131.019 290.496 123.806C289.926 120.091 289.214 116.426 288.365 112.81C288.173 111.987 287.969 111.164 287.758 110.34C287.758 110.322 287.752 110.297 287.746 110.278C287.578 109.597 287.405 108.922 287.219 108.248C284.785 99.1712 281.496 90.4354 277.445 82.1516C273.586 74.2516 269.027 66.7479 263.854 59.727C262.312 57.622 260.708 55.5604 259.048 53.542C255.554 49.2825 251.831 45.2334 247.88 41.4011C243.723 37.3706 239.332 33.5816 234.723 30.0588C233.614 29.2106 232.493 28.381 231.353 27.5637C215.911 16.4567 198.214 8.28434 179.074 3.87001C168.476 1.43068 157.438 0.136719 146.096 0.136719C134.755 0.136719 123.716 1.43068 113.118 3.87621C88.589 9.52877 66.4322 21.354 48.3575 37.6245C42.9004 42.5403 37.8211 47.8585 33.1569 53.5358C31.1685 55.9566 29.2545 58.4393 27.4272 60.9901C24.423 65.1505 21.6418 69.4782 19.0898 73.9544C19.0217 74.0721 18.9597 74.1835 18.8978 74.3011C15.6024 80.0961 12.7097 86.1387 10.2259 92.3856C8.93747 95.6236 7.76675 98.9297 6.71375 102.279C5.11563 107.35 3.79626 112.538 2.75565 117.825C0.94693 126.994 -0.000793457 136.473 -0.000793457 146.169Z" fill="#3D4FA0"/>
<path d="M6.71375 102.279C67.9312 130.993 123.153 128.201 174.181 121.471C224.534 114.834 257.858 96.7685 277.445 82.1511C273.586 74.2511 269.027 66.7474 263.854 59.7266C230.183 89.6796 169.696 99.4927 169.696 99.4927C70.7062 113.559 32.8905 94.3478 18.8978 74.3007C15.6024 80.0956 12.7097 86.1382 10.2259 92.3852C8.93747 95.6232 7.76675 98.9293 6.71375 102.279Z" fill="#4A5CA9"/>
<path opacity="0.2" d="M290.037 114.691C290.037 114.691 222.527 194.378 118.842 181.847C15.1565 169.316 100.519 155.077 154.526 148.941C208.534 142.806 234.581 140.088 290.037 114.691Z" fill="#586EB5"/>
<path opacity="0.2" d="M19.1146 73.8177C28.5855 80.9871 43.1729 86.9678 64.128 91.2769C194.9 118.171 226.943 58.3273 234.748 29.9221C218.531 17.5397 199.645 8.46957 179.099 3.7333C168.501 1.29396 157.463 0 146.121 0C134.779 0 123.741 1.29396 113.143 3.73949C81.2116 11.1008 53.2881 28.9191 33.1816 53.3991C27.9351 59.7761 23.2275 66.605 19.1146 73.8177Z" fill="#495AA8"/>
<path d="M73.0972 19.7195C92.2498 38.0702 116.494 49.0286 142.869 49.0286C169.244 49.0286 195.551 37.1106 215.069 17.3297C203.901 11.3552 191.871 6.79226 179.204 3.87001C168.606 1.43068 157.568 0.136719 146.226 0.136719C134.885 0.136719 123.846 1.43068 113.248 3.87621C98.9457 7.16993 85.4485 12.5687 73.0972 19.7195Z" fill="#334494"/>
<path d="M24.3735 226.951C30.9579 236.851 38.7255 245.902 47.4655 253.901H47.4717C49.0699 255.362 50.6989 256.793 52.359 258.186C52.359 258.186 52.3631 258.188 52.3714 258.192C76.2315 278.158 106.565 290.652 139.766 292.064C141.865 292.157 143.978 292.2 146.096 292.2C207.19 292.2 259.525 254.725 281.341 201.518C281.328 201.53 281.316 201.536 281.304 201.549C266.202 213.553 153.783 296.881 24.3735 226.951Z" fill="#384192"/>
<path opacity="0.4" d="M53.0713 258.775C76.8262 278.401 106.887 290.665 139.766 292.065C141.865 292.158 143.978 292.201 146.096 292.201C193.798 292.201 236.16 269.355 262.82 234.01C236.854 252.503 151.665 303.444 53.0713 258.775Z" fill="#586EB5"/>
<path opacity="0.1" d="M249.403 42.7691C248.016 41.3822 246.61 40.0264 245.179 38.7138C189.586 -12.6422 103.765 -12.9022 47.8681 37.9275C92.8444 28.3807 141.463 40.2183 177.427 73.4403C178.857 74.759 180.263 76.1149 181.651 77.5017C195.086 90.9304 205.362 106.322 212.467 122.759C235.547 176.109 225.277 240.411 181.657 284.015C179.991 285.681 178.3 287.297 176.566 288.857C203.263 283.204 228.671 270.011 249.41 249.283C293.029 205.691 303.299 141.383 280.22 88.0267C273.109 71.5953 262.832 56.1978 249.403 42.7691Z" fill="#2B3169"/>
</g>
</g>
<defs>
<clipPath id="clip0_164_343">
<rect width="292.2" height="292.2" fill="white" transform="matrix(-1 0 0 1 292.199 0)"/>
</clipPath>
<clipPath id="clip1_164_343">
<rect width="292.2" height="292.2" fill="white" transform="matrix(-1 0 0 1 292.199 0)"/>
</clipPath>
</defs>
</svg>
