<svg width="1097" height="1097" viewBox="0 0 1097 1097" fill="none" xmlns="http://www.w3.org/2000/svg">
<g clip-path="url(#clip0_164_431)">
<path d="M893.23 574.112C890.651 609.532 882.608 644.659 869.113 678.115C853.246 717.419 829.847 754.451 798.858 786.999C795.664 790.369 792.411 793.652 789.1 796.847C765.364 819.898 739.079 838.876 711.167 853.75C699.05 860.228 686.626 865.914 673.937 870.823C669.234 872.655 664.501 874.384 659.71 875.996C647.168 880.26 634.407 883.778 621.513 886.547C616.165 887.69 610.803 888.716 605.411 889.61C594.642 891.398 583.814 892.673 572.942 893.435C563.023 894.138 553.075 894.402 543.141 894.256C542.672 894.256 542.218 894.256 541.734 894.241C536.606 894.124 531.478 893.919 526.364 893.596H526.335C524.181 893.464 522.027 893.288 519.859 893.113C504.782 891.867 489.75 889.625 474.893 886.401C415.04 873.402 357.884 844.313 310.28 798.986C249.417 741.013 214.311 666.172 205.315 588.722C204.392 580.765 203.747 572.778 203.381 564.777C202.267 541.022 203.601 517.179 207.366 493.629C209.461 480.616 212.289 467.705 215.864 454.941C217.227 450.061 218.721 445.21 220.304 440.389C224.553 427.478 229.593 414.743 235.41 402.302C250.838 369.285 271.79 338.159 298.31 310.3L298.72 309.875C310.998 297.009 324.053 285.3 337.723 274.748C344.756 269.297 351.964 264.182 359.32 259.376C360.99 258.277 362.675 257.192 364.389 256.122C364.418 256.093 364.462 256.064 364.506 256.034C365.913 255.141 367.305 254.276 368.726 253.411C388.564 241.307 409.37 231.371 430.806 223.619C455.318 214.753 480.636 208.744 506.262 205.593C530.086 202.662 554.159 202.208 578.085 204.26C628.868 208.568 678.948 224.102 724.31 250.92C727.255 252.679 730.2 254.452 733.086 256.298C752.016 268.286 770.067 282.281 786.902 298.328C806.331 316.822 823.121 337.06 837.29 358.543C879.985 423.243 898.739 499.344 893.23 574.112Z" fill="#FFDAA6"/>
<path d="M529.866 884.965C527.068 882.987 524.24 880.935 521.398 878.825C477.735 846.761 424.725 802.035 370.03 749.938C296.346 679.786 236.172 612.082 203.381 564.777C203.747 572.779 204.406 580.765 205.33 588.723C242.208 637.669 296.639 697.958 361.078 759.331C417.604 813.158 472.93 859.334 519.874 893.113C522.028 893.289 524.181 893.45 526.335 893.582C526.335 893.582 526.345 893.582 526.365 893.582C531.478 893.904 536.606 894.109 541.734 894.212C542.218 894.227 542.672 894.241 543.141 894.241C538.833 891.296 534.408 888.189 529.881 884.95L529.866 884.965Z" fill="#E0CAA0"/>
<path d="M659.373 875.806H659.359C654.949 873.197 650.524 870.442 646.055 867.643L646.026 867.614C577.397 824.779 496.724 761.442 416.022 684.593C331.701 604.286 262.12 523.29 215.879 454.941C212.304 467.706 209.476 480.631 207.381 493.629C254.75 560.498 318.939 634.328 394.953 706.722C472.651 780.712 551.258 842.291 621.528 886.548C634.421 883.778 647.183 880.261 659.725 875.996C659.608 875.923 659.505 875.865 659.388 875.791L659.373 875.806Z" fill="#DCC19A"/>
<path d="M451.421 646.8C362.616 562.228 288.112 476.821 235.41 402.303C229.593 414.744 224.553 427.479 220.304 440.39C273.665 514.132 343.994 594.366 426.513 672.958C510.878 753.294 596.312 820.808 673.937 870.839C686.611 865.915 699.05 860.229 711.153 853.751C633 804.644 542.13 733.203 451.406 646.8H451.421Z" fill="#DCC19A"/>
<path d="M798.99 787.307C798.785 787.513 798.521 787.674 798.184 787.747C791.313 789.52 756.866 764.183 706.567 721.538C703.68 719.076 700.735 716.584 697.747 714.02H697.732C652.092 674.922 594.774 622.971 533.676 564.778C395.422 433.136 290.105 319.343 298.442 310.609L298.852 310.184C305.548 303.164 312.493 296.482 319.614 290.151C325.562 284.876 331.628 279.849 337.855 275.042C344.888 269.606 352.097 264.476 359.452 259.67C361.063 258.615 362.69 257.574 364.331 256.548C364.389 256.504 364.463 256.475 364.521 256.431C364.551 256.402 364.609 256.372 364.638 256.343C366.03 255.449 367.437 254.57 368.858 253.72C396.272 236.999 425.561 224.411 455.772 215.999C461.076 214.504 466.395 213.171 471.772 211.969C483.215 209.346 494.761 207.338 506.394 205.902C541.705 201.55 577.558 202.649 612.634 209.214C616.312 209.903 619.975 210.636 623.638 211.456C658.656 219.179 692.706 232.427 724.471 251.229C746.61 264.345 767.621 280.128 787.064 298.636C806.507 317.145 823.283 337.368 837.451 358.852C857.773 389.641 872.659 423.01 882.08 457.594C883.091 461.214 884.014 464.834 884.864 468.483C893.157 503.185 896 538.971 893.392 574.435C892.542 586.1 891.091 597.765 889.04 609.313C888.117 614.662 887.047 619.996 885.846 625.287L885.802 625.506C881.758 643.458 876.234 661.176 869.275 678.439C863.722 692.229 857.216 705.725 849.788 718.871C840.733 734.917 830.272 750.407 818.419 765.164C812.323 772.755 805.847 780.156 799.02 787.322L798.99 787.307Z" fill="#FFDAA6"/>
<path d="M893.758 559.664C880.483 550.886 863.824 538.503 844.689 523.204C842.184 521.211 839.649 519.159 837.07 517.063C797.672 485.102 748.808 441.915 697.307 392.88C616.532 315.988 550.511 244.869 521.119 204.789C518.072 205.038 515.009 205.317 511.962 205.639C547.17 251.977 612.869 322.964 692.062 398.391C748.456 452.1 802.272 499.082 845.92 533.55H845.934C848.777 535.836 851.605 538.034 854.374 540.188C868.689 551.296 881.787 560.939 893.362 568.867C893.538 565.819 893.655 562.756 893.743 559.679L893.758 559.664Z" fill="#E0CAA0"/>
<path d="M882.051 457.58C875.59 453.111 868.586 447.996 861.143 442.354C859.15 440.845 857.143 439.306 855.092 437.709C839.473 425.604 822.067 411.272 803.576 395.211C785.086 379.12 765.482 361.3 745.482 342.264C692.985 292.262 649.132 244.738 623.623 211.457C619.96 210.651 616.297 209.904 612.62 209.215C640.326 246.012 685.82 295.911 740.251 347.744C784.075 389.481 826.374 425.487 861.084 451.44C863.341 453.155 865.597 454.811 867.795 456.423C873.729 460.761 879.414 464.776 884.82 468.454L882.036 457.566L882.051 457.58Z" fill="#E0CAA0"/>
<path d="M885.817 625.272L889.011 609.298C882.872 605.078 876.542 600.593 870.022 595.86C866.506 593.339 862.945 590.701 859.326 588.034H859.312C804.177 547.075 737.057 490.171 667.637 424.05C585.162 345.531 515.83 269.664 471.758 211.969C466.38 213.17 461.062 214.504 455.758 215.999C502.966 278.339 573.353 356.082 656.722 435.48C732.764 507.888 806.873 569.57 868.322 613.313L868.352 613.343C872.352 616.215 876.322 618.999 880.234 621.711C882.095 623 883.927 624.26 885.743 625.506L885.787 625.286L885.817 625.272Z" fill="#E0CAA0"/>
<path d="M875.326 662.099C873.597 660.81 871.868 659.506 870.11 658.187H870.095C866.066 655.168 862.007 652.046 857.89 648.866L857.861 648.837C794.697 600.257 717.292 533.476 636.604 456.628C548.284 372.525 472.226 291.779 419.729 228.207C414.85 230.156 410.029 232.222 405.238 234.421C460.754 302.007 537.353 383.795 625.777 468C714.156 552.161 799.561 624.657 869.743 676.783L869.787 676.827C869.787 676.827 869.846 676.871 869.875 676.886C871.824 671.991 873.641 667.067 875.355 662.099H875.326Z" fill="#EAD1A0"/>
<path d="M849.744 718.856C767.987 654.83 682.215 580.78 596.283 498.949C510.365 417.133 432.227 335.082 364.301 256.562C362.675 257.603 361.034 258.629 359.422 259.684C352.067 264.491 344.873 269.62 337.825 275.057C331.598 279.849 325.533 284.89 319.584 290.165C389.341 372.055 469.179 456.539 557.016 540.202C644.868 623.865 733.174 699.497 818.374 765.164C830.228 750.407 840.689 734.917 849.744 718.87V718.856Z" fill="#EAD1A0"/>
<path opacity="0.1" d="M893.23 574.112C890.652 609.532 882.608 644.659 869.113 678.115C853.246 717.419 829.847 754.451 798.858 786.999C795.664 790.369 792.411 793.652 789.1 796.847C765.364 819.898 739.079 838.876 711.167 853.75C699.05 860.228 686.626 865.914 673.937 870.823C669.234 872.655 664.501 874.384 659.71 875.996C647.168 880.26 634.407 883.778 621.513 886.547C616.165 887.69 610.803 888.716 605.411 889.61C594.642 891.398 583.814 892.673 572.943 893.435C664.868 841.822 732.969 750.436 751.313 639.398C752.119 634.679 752.778 629.946 753.379 625.154C759.167 578.904 755.87 533.592 744.852 491.006C709.189 352.828 592.371 243.651 442.175 224.85C438.381 224.366 434.6 223.97 430.806 223.619C455.318 214.753 480.636 208.744 506.262 205.593C530.086 202.662 554.159 202.208 578.085 204.26C628.868 208.568 678.948 224.102 724.31 250.92C727.255 252.679 730.2 254.452 733.086 256.298C752.017 268.286 770.067 282.281 786.902 298.328C806.331 316.822 823.122 337.06 837.29 358.543C879.985 423.243 898.739 499.344 893.23 574.112Z" fill="#2B3169"/>
<path d="M1006.23 1049.95C1007.2 1049.5 1008.07 1048.89 1008.82 1048.16C1015.95 1041.03 1011.16 1022.6 996.316 995.222C983.666 971.885 963.72 942.078 937.582 907.184C906.413 865.539 866.433 816.661 819.613 763.017C816.569 766.958 813.435 770.855 810.199 774.678C809.905 775.046 809.596 775.399 809.273 775.781C823.232 791.706 836.456 807.102 848.855 821.837C849.311 822.381 849.782 822.925 850.238 823.469C868.169 844.806 884.408 864.775 898.735 883.156C923.137 914.448 941.98 941.064 954.218 961.695C968.56 985.913 973.796 1001.85 968.192 1007.44C967.604 1008.03 966.927 1008.49 966.118 1008.84C949.614 1016.04 886.585 974.223 797.829 900.272L797.799 900.228C792.887 896.17 787.885 891.964 782.825 887.685C782.634 887.523 782.443 887.362 782.266 887.2C782.266 887.2 782.257 887.19 782.237 887.17C766.145 873.568 749.318 858.981 731.828 843.556C661.959 781.898 581.838 706.433 498.539 622.939C403.988 528.195 319.762 437.554 254.306 361.457C247.525 353.545 240.935 345.811 234.551 338.252C149.223 236.951 101.844 165.735 115.097 152.515L115.171 152.442C117.436 150.251 121.304 149.78 126.673 150.912C129.439 151.471 132.586 152.471 136.131 153.897C136.94 154.236 137.779 154.559 138.661 154.942C138.661 154.942 138.691 154.942 138.705 154.956C139.397 155.236 140.073 155.544 140.824 155.897C162.74 165.853 196.631 188.851 239.243 222.202C257.557 236.554 277.488 252.817 298.787 270.801C299.199 271.154 299.61 271.507 300.008 271.86C300.169 272.007 300.361 272.169 300.552 272.316C306.583 277.404 312.716 282.639 318.953 288.006C319.115 287.874 319.291 287.741 319.438 287.594C323.439 284.168 327.514 280.874 331.632 277.654C288.887 240.921 249.628 209.114 215.297 183.293C167.83 147.589 129.733 123.37 104.653 113.518C103.786 113.165 103.006 112.856 102.226 112.592C102.197 112.592 102.168 112.562 102.138 112.577C101.167 112.209 100.196 111.871 99.2698 111.562C95.1953 110.209 91.5621 109.283 88.3261 108.856C82.0893 108.018 77.4412 108.901 74.5729 111.68L74.4846 111.768C73.3079 112.944 72.44 114.43 71.9252 116.209C66.1739 135.252 96.578 188.307 153.032 262.478C178.744 296.27 209.854 334.459 245.407 375.809C312.275 453.597 394.868 542.591 486.771 634.688C567.893 715.976 646.603 790.001 717.354 852.349C746.082 877.686 773.514 901.096 799.256 922.271C799.256 922.271 799.27 922.286 799.3 922.315C805.125 927.138 810.876 931.785 816.554 936.388H816.568C830.895 947.975 844.649 958.798 857.74 968.812C932.125 1025.72 985.343 1056.45 1004.42 1050.66C1005.07 1050.45 1005.69 1050.22 1006.26 1049.94L1006.23 1049.95Z" fill="#1E1E1F"/>
<path d="M1044.62 1099.13C1045.68 1098.61 1046.64 1097.95 1047.45 1097.14C1055.24 1089.36 1050.01 1069.2 1033.78 1039.23C1019.95 1013.72 998.125 981.119 969.545 942.96C931.051 891.493 880.245 829.953 820.216 762.223C820.011 762.473 819.819 762.737 819.628 762.987C816.583 766.928 813.45 770.825 810.214 774.648C809.92 775.016 809.611 775.369 809.287 775.751C809.17 775.898 809.037 776.045 808.905 776.192C822.997 792.03 836.485 807.44 849.326 822.351C849.635 822.733 849.959 823.101 850.268 823.439C879.495 857.407 905.324 888.744 927.08 916.653C953.762 950.886 974.37 979.987 987.741 1002.54C1002.01 1026.63 1008.04 1043.22 1004.42 1050.64C1004.05 1051.39 1003.58 1052.04 1003.04 1052.6C1002.41 1053.23 1001.66 1053.72 1000.77 1054.11C985.372 1060.82 933.007 1028.56 857.755 968.797C844.737 958.459 831.028 947.298 816.716 935.373L816.672 935.343C811.111 930.741 805.448 925.961 799.697 921.094C799.697 921.094 799.687 921.079 799.668 921.05C774.515 899.772 747.67 876.362 719.517 851.099C649.25 788.089 570.703 713.564 489.39 632.07C397.31 539.797 314.143 451.068 246.495 373.956C210.678 333.135 179.2 295.579 153.047 262.448C90.3267 183.13 58.1869 129.355 69.9837 117.576L70.0573 117.503C70.5868 116.988 71.2193 116.562 71.9106 116.223C74.4406 114.959 78.0444 114.856 82.6484 115.826C85.6785 116.444 89.1205 117.532 92.989 119.091C93.8716 119.444 94.7983 119.811 95.7397 120.238C95.7397 120.238 95.7691 120.238 95.7838 120.252C96.534 120.561 97.2841 120.899 98.1226 121.267C122.113 132.178 159.166 157.323 205.765 193.806C233.61 215.613 264.882 241.494 298.787 270.786C299.154 271.124 299.522 271.433 299.905 271.771C299.934 271.801 299.964 271.83 300.008 271.845C306.171 277.183 312.422 282.624 318.747 288.167C318.806 288.108 318.88 288.05 318.939 287.991C319.1 287.859 319.277 287.726 319.424 287.579C323.425 284.153 327.499 280.859 331.618 277.639C331.956 277.374 332.28 277.109 332.633 276.845C275.781 227.127 223.931 184.586 179.553 151.25C127.644 112.224 85.9874 85.7401 58.5399 74.9762C57.6132 74.6085 56.7453 74.2556 55.8775 73.9468C55.8481 73.9468 55.8039 73.9027 55.7745 73.9321C54.7155 73.5498 53.6564 73.1528 52.6414 72.8145C48.2139 71.3294 44.2277 70.3294 40.6975 69.8442C33.8724 68.9325 28.783 69.903 25.6499 72.9469L25.5616 73.0498C2.92403 95.6365 89.9295 222.26 237.287 390.381C305.671 468.375 387.043 555.325 476.475 644.966C555.479 724.152 632.394 797.015 702.954 860.187C743.802 896.772 782.517 930.108 818.245 959.503C818.245 959.503 818.265 959.518 818.304 959.547C824.673 964.812 830.954 969.914 837.162 974.914L837.191 974.943C944.981 1062.04 1022.51 1110.1 1044.65 1099.13H1044.62Z" fill="#505052"/>
<path d="M880.613 911.462C881.275 911.168 881.878 910.771 882.363 910.271C886.129 906.521 884.717 897.845 878.759 885.067C877.068 881.405 875.008 877.405 872.581 873.097C863.3 856.569 848.782 835.379 829.866 810.513C822.482 800.823 814.436 790.559 805.772 779.795C804.271 781.5 802.742 783.206 801.212 784.912C800.271 785.941 799.314 786.971 798.358 788.015C799.697 789.691 801.021 791.353 802.315 792.985C819.937 815.307 833.616 834.232 842.56 848.878C853.047 866.053 857.034 877.273 853.224 881.052C852.841 881.449 852.371 881.743 851.812 881.979C842.074 885.993 807.905 864.303 758.555 824.542C750.215 817.836 741.448 810.601 732.284 802.881L732.255 802.852C728.607 799.823 724.915 796.676 721.164 793.47C721.164 793.47 721.154 793.46 721.135 793.441C663.754 744.429 592.737 678.36 518.014 603.498C410.651 495.902 321.483 395.983 274.855 333.296C248.084 297.299 235.331 273.58 241.214 267.712L241.259 267.668C242.788 266.183 245.48 265.933 249.231 266.83C251.173 267.271 253.394 268.036 255.894 269.109C256.468 269.345 257.042 269.595 257.674 269.889C257.674 269.889 257.674 269.889 257.704 269.889C258.189 270.109 258.674 270.33 259.204 270.594C270.368 275.918 286.004 286.079 305.229 300.372C306.553 299.122 307.892 297.857 309.216 296.637C310.657 295.299 312.113 293.975 313.584 292.666C312.952 292.167 312.319 291.696 311.687 291.211C280.415 267.301 254.938 250.405 237.302 242.185C235.86 241.494 234.463 240.891 233.139 240.332C232.536 240.067 231.977 239.847 231.418 239.626C231.403 239.626 231.374 239.597 231.374 239.611C230.697 239.347 230.006 239.082 229.359 238.847C226.49 237.803 223.931 237.082 221.666 236.729C217.297 236.023 214.061 236.553 212.134 238.45L212.09 238.494C202.911 247.655 224.505 286.093 267.735 342.384C321.189 411.996 407.724 508.887 510.056 611.439C591.884 693.448 670.123 765.354 733.726 818.263C733.726 818.263 733.736 818.277 733.755 818.307C737.918 821.777 742.022 825.144 746.067 828.453H746.081C747.258 829.438 748.45 830.394 749.612 831.335C818.069 887.037 866.933 917.932 880.613 911.447V911.462Z" fill="#232222"/>
<path d="M933.684 976.545C934.508 976.148 935.228 975.648 935.846 975.031C941.818 969.075 937.744 953.562 925.167 930.475C914.474 910.829 897.602 885.699 875.523 856.289C867.463 845.54 858.696 834.217 849.297 822.365C849.15 822.174 849.003 821.997 848.855 821.806C836.97 806.866 824.056 791.102 810.199 774.648C809.905 775.015 809.596 775.368 809.273 775.751C809.155 775.898 809.023 776.045 808.89 776.192C807.875 777.398 806.846 778.589 805.801 779.78C804.301 781.485 802.771 783.191 801.241 784.897C816.627 803.175 830.542 820.262 842.81 835.967C857.196 854.377 869.287 870.847 878.804 885.052C882.937 891.198 886.57 896.904 889.688 902.154C901.824 922.549 906.28 935.989 901.588 940.666C901.103 941.151 900.529 941.533 899.852 941.827C885.996 947.827 832.881 912.476 758.026 850.025L757.996 849.995C753.686 846.437 749.332 842.746 744.89 838.982C744.89 838.982 744.88 838.972 744.861 838.952C743.963 838.187 743.051 837.423 742.125 836.643C674.859 779.5 592.237 702.844 505.526 615.938C406.223 516.415 320.351 422.275 261.749 350.53C203.044 278.623 171.728 229.156 181.715 219.215L181.76 219.171C183.657 217.333 186.908 216.951 191.438 217.921C193.762 218.407 196.41 219.245 199.381 220.465C200.073 220.745 200.764 221.024 201.499 221.348C201.499 221.348 201.529 221.348 201.544 221.362C202.117 221.598 202.706 221.862 203.338 222.171C212.355 226.318 223.799 233.038 237.317 242.17C251.467 251.698 267.912 263.83 286.269 278.226C293.624 284.005 301.287 290.137 309.245 296.622C310.687 295.284 312.143 293.96 313.614 292.652C315.32 291.122 317.026 289.622 318.747 288.152C318.806 288.093 318.88 288.034 318.938 287.975C319.1 287.843 319.277 287.711 319.424 287.564C312.996 282.299 306.7 277.197 300.537 272.285C300.361 272.138 300.169 271.991 299.993 271.829C299.949 271.815 299.919 271.771 299.89 271.756C288.064 262.33 276.752 253.537 266.014 245.449C225.99 215.275 193.895 194.791 172.772 186.438C172.051 186.159 171.39 185.879 170.713 185.644C170.713 185.644 170.669 185.63 170.654 185.644C169.83 185.335 169.021 185.041 168.256 184.791C164.829 183.615 161.755 182.836 159.048 182.483C153.782 181.747 149.885 182.483 147.487 184.821L147.413 184.894C134.44 197.82 168.786 255.683 234.522 338.266C240.685 346.015 247.128 353.986 253.85 362.147C315.57 437.318 399.604 529.547 495.656 625.805C579.94 710.27 661.121 785.456 730.431 844.437C740.286 852.819 749.906 860.862 759.246 868.568C759.246 868.568 759.261 868.577 759.291 868.597C764.218 872.67 769.057 876.596 773.838 880.464C776.853 882.92 779.839 885.317 782.796 887.684C861.226 950.386 917.298 984.604 933.669 976.531L933.684 976.545Z" fill="#454546"/>
</g>
<defs>
<clipPath id="clip0_164_431">
<rect width="1097" height="1097" fill="white"/>
</clipPath>
</defs>
</svg>
