<svg width="11637" height="11637" opacity="1.3" viewBox="0 0 11637 11637" fill="none" xmlns="http://www.w3.org/2000/svg">
<g clip-path="url(#clip0_164_462)">
<path opacity="0.1" d="M5818.5 11637C9031.97 11637 11637 9031.97 11637 5818.5C11637 2605.03 9031.97 0 5818.5 0C2605.03 0 0 2605.03 0 5818.5C0 9031.97 2605.03 11637 5818.5 11637Z" fill="#FFF24D"/>
<path opacity="0.1" d="M5818.5 11282.3C8836.08 11282.3 11282.3 8836.08 11282.3 5818.5C11282.3 2800.92 8836.08 354.68 5818.5 354.68C2800.91 354.68 354.678 2800.92 354.678 5818.5C354.678 8836.08 2800.91 11282.3 5818.5 11282.3Z" fill="#FFF24D"/>
<path opacity="0.15" d="M5818.5 10744C8538.75 10744 10744 8538.75 10744 5818.5C10744 3098.25 8538.75 893.049 5818.5 893.049C3098.25 893.049 893.05 3098.25 893.05 5818.5C893.05 8538.75 3098.25 10744 5818.5 10744Z" fill="#FFF24D"/>
<path d="M5818.1 9947.2C8098.54 9947.2 9947.2 8098.54 9947.2 5818.1C9947.2 3537.66 8098.54 1689 5818.1 1689C3537.66 1689 1689 3537.66 1689 5818.1C1689 8098.54 3537.66 9947.2 5818.1 9947.2Z" fill="#F4D851"/>
<path d="M5818.1 9527.73C7866.88 9527.73 9527.74 7866.87 9527.74 5818.1C9527.74 3769.32 7866.88 2108.46 5818.1 2108.46C3769.33 2108.46 2108.47 3769.32 2108.47 5818.1C2108.47 7866.87 3769.33 9527.73 5818.1 9527.73Z" fill="#F8F7A5"/>
<path d="M3286.56 8677.81C3286.56 8677.81 3796.33 8745.2 3834.99 8513.16C3873.65 8281.12 3989.64 8257.92 3834.99 8126.47C3680.34 7995.02 3626.14 7762.97 3688.07 7701.12C3749.93 7639.26 3780.86 7530.93 3564.35 7445.88C3347.78 7360.82 3418.86 7708.85 3286.63 7685.65C3154.47 7662.45 3077.07 7646.99 3046.14 7515.47C3015.21 7384.02 2961.09 7175.17 2875.96 7314.35C2790.83 7453.54 2899.16 7523.2 2698.04 7430.34C2496.93 7337.55 2504.66 7323.86 2450.53 7383.95C2396.41 7444.03 2400.88 7455.38 2400.88 7455.38C2400.88 7455.38 2736.92 8783.3 3297.55 8686.89" fill="#F4D851"/>
<path d="M2309.72 6131.51C2309.72 6131.51 2584.47 6167.83 2605.26 6042.76C2626.11 5917.7 2688.61 5905.21 2605.26 5834.34C2521.9 5763.48 2492.75 5638.41 2526.09 5605.07C2559.43 5571.73 2576.1 5513.34 2459.4 5467.52C2342.71 5421.69 2380.94 5609.25 2309.72 5596.7C2238.5 5584.21 2196.79 5575.84 2180.12 5504.97C2163.44 5434.1 2134.29 5321.59 2088.39 5396.58C2042.56 5471.63 2100.88 5509.09 1992.55 5459.08C1884.16 5409.06 1888.34 5401.69 1859.19 5434.03C1830.03 5466.38 1832.44 5472.55 1832.44 5472.55C1832.44 5472.55 2013.55 6188.19 2315.68 6136.26" fill="#F4D851"/>
<path d="M6207.63 3506.04C6207.63 3506.04 6429.53 3479.51 6446.34 3570.81C6463.15 3662.11 6513.66 3671.26 6446.34 3722.97C6379.02 3774.69 6355.47 3866.06 6382.35 3890.39C6409.31 3914.72 6422.79 3957.36 6328.51 3990.84C6234.23 4024.33 6265.16 3887.34 6207.63 3896.49C6150.1 3905.64 6116.4 3911.74 6102.92 3963.46C6089.44 4015.17 6065.89 4097.39 6028.86 4042.63C5991.83 3987.86 6038.94 3960.48 5951.4 3996.94C5863.86 4033.41 5867.19 4038.87 5843.64 4015.17C5820.09 3991.55 5822 3987.08 5822 3987.08C5822 3987.08 5968.28 3464.54 6212.38 3502.42" fill="#F4D851"/>
<path d="M6775.92 9449.21C6775.92 9449.21 6830.55 9187.44 7023.15 9108.63C7215.82 9029.81 7198.3 8942.27 7163.25 8793.37C7128.21 8644.47 6970.58 8530.68 7259.59 8513.16C7548.6 8495.64 7478.51 8197.91 7767.52 8381.78C8056.52 8565.66 8082.77 8627.02 8205.35 8460.59C8327.94 8294.24 8233.94 8029.78 8450.59 8180.38L8667.17 8330.92C8667.17 8330.92 7798.16 9419.48 6775.85 9449.21H6775.92Z" fill="#F4D851"/>
<path d="M3480.58 4350.01C3353.38 4375.48 3416.94 4254.31 3308.83 4410.31C3200.72 4566.3 2825.45 4493.09 2952.65 4709.39C3079.84 4925.68 3210.23 4998.82 3257.97 4900.21C3305.64 4801.61 3362.89 4862.05 3429.71 4906.6C3496.47 4951.15 3461.49 5015.14 3563.29 4943.42C3665.09 4871.63 3722.34 4811.19 3814.56 4852.54C3906.78 4893.9 3859.11 4410.52 3700.06 4483.66C3541.02 4556.8 3534.7 4416.9 3563.29 4343.69C3591.88 4270.56 3588.76 4178.34 3534.7 4264.17" fill="#F4D851"/>
<path d="M7204.26 2321.14C7051.81 2638.74 6798.91 2470.96 6777.7 2602.2C6756.56 2733.37 6633.83 2830.7 6777.7 2792.6C6921.56 2754.51 6989.24 2754.3 6921.56 2800.97C6853.89 2847.65 6803.1 2843.4 6819.98 2936.54C6836.93 3029.61 6815.72 3143.9 6921.56 3139.64C7027.33 3135.38 7061.17 2949.24 7116.22 3000.03C7171.2 3050.82 7056.99 3071.96 7171.2 3088.92C7285.48 3105.87 7425.09 2839.28 7463.19 3084.66C7501.28 3330.04 7590.1 3220.08 7767.87 3194.69C7945.58 3169.29 7801.71 3029.68 7958.27 3110.06C8114.84 3190.43 8148.67 3135.45 8152.93 3050.82C8157.19 2966.19 8135.98 2940.8 8199.47 2957.75C8262.96 2974.71 8298.14 2948.39 8298.14 2948.39C8298.14 2948.39 7347.2 2023.34 7204.19 2321.28L7204.26 2321.14Z" fill="#F4D851"/>
<path d="M3531.23 2606.88C3599.19 2843.96 3388.85 2873.83 3438.79 2952.29C3488.73 3030.75 3469.79 3138.72 3527.33 3051.89C3584.86 2965.06 3620.19 2933.42 3606.49 2989.32C3592.8 3045.22 3564.21 3066.64 3616.43 3107.43C3668.57 3148.29 3710.63 3217.89 3764.05 3166.46C3817.4 3115.02 3748.51 3001.88 3800.94 3002.87C3853.36 3003.86 3803.42 3068.06 3871.03 3023.8C3938.63 2979.53 3887.77 2775.08 4021.84 2885.82C4155.92 2996.48 4151.24 2897.59 4232.39 2801.68C4313.55 2705.77 4173.37 2699.6 4292.69 2668.82C4412.01 2638.1 4404.14 2593.55 4366.96 2547.3C4329.79 2501.04 4306.95 2497.64 4348.02 2476.92C4389.1 2456.28 4395.27 2426.13 4395.27 2426.13C4395.27 2426.13 3467.52 2384.42 3531.23 2606.81V2606.88Z" fill="#F4D851"/>
<path d="M8146.33 5223.34C8020.06 5345.08 7952.45 5236.89 7979.48 5435.31C8006.51 5633.73 7905.92 5701.33 8059.93 5624.72C8213.94 5548.03 8191.38 5462.41 8240.96 5575.13C8290.55 5687.86 8191.38 5750.99 8308.57 5755.53C8425.83 5760.07 8326.59 5606.7 8443.85 5629.26C8561.11 5651.82 8632.76 5797.1 8666.81 5568.61C8700.86 5340.11 8592.68 5286.06 8746.98 5308.05C8901.27 5330.11 8927.37 5163.76 8813.09 5105.66C8698.88 5047.56 8578.64 4927.31 8484.43 5029.47C8390.22 5131.62 8470.38 5221.85 8306.09 5123.67C8141.72 5025.49 8133.7 4915.25 8097.67 5027.48C8061.56 5139.71 8041.06 5136.23 8093.62 5179.79" fill="#F4D851"/>
<path d="M9200.85 6907.45C9099.05 7005.63 9044.5 6918.37 9066.28 7078.34C9088.12 7238.38 9006.97 7292.93 9131.18 7231.07C9255.4 7169.21 9237.24 7100.12 9277.25 7191.06C9317.26 7282.01 9237.24 7332.87 9331.8 7336.56C9426.36 7340.18 9346.34 7216.53 9440.91 7234.76C9535.47 7252.92 9593.21 7370.11 9620.74 7185.88C9648.19 7001.65 9560.94 6957.96 9685.36 6975.76C9809.79 6993.57 9830.86 6859.35 9738.71 6812.53C9646.56 6765.64 9549.59 6668.66 9473.61 6751.1C9397.63 6833.53 9462.33 6906.24 9329.74 6827.07C9197.23 6747.9 9190.77 6658.95 9161.62 6749.46C9132.53 6839.98 9115.93 6837.15 9158.36 6872.33" fill="#F4D851"/>
<path d="M5438.58 5860.88C5351.67 6002.05 5322.73 6009.42 5427.72 6114.34C5532.71 6219.26 5670.26 6251.82 5579.75 6327.8C5489.23 6403.85 5728.15 6519.62 5728.15 6519.62C5728.15 6519.62 5787.67 6533.45 5833.92 6472.94C5854.85 6445.56 5896.63 6448.82 5948.91 6468.9C6143.78 6543.88 6079.23 6696.97 6176.98 6577.51C6274.74 6458.05 5959.77 6211.89 6176.98 6298.79C6394.2 6385.69 6513.59 6197.41 6303.68 6099.73C6093.7 6001.98 6108.24 5936.85 6133.57 5886.13C6158.89 5835.48 6313.19 5741.34 6085.83 5712.4C5858.47 5683.46 5641.32 5498.8 5724.53 5712.4C5807.82 5926 5514.55 5730.49 5514.55 5730.49C5514.55 5730.49 5322.73 5745.32 5380.62 5803.06" fill="#F4D851"/>
<path d="M5377.28 8691.93C5377.28 8691.93 5120.98 8574.59 5142.33 8396.61C5163.68 8218.62 5505.4 8090.5 5526.75 7905.35C5548.1 7720.2 5612.16 7638.76 5790.15 7818.31C5968.14 7997.86 5966.93 8155.7 5818.03 8204.93C5752.13 8226.71 5513.06 8246 5597.9 8403.63C5697.57 8588.71 5889.82 8628.01 5633.52 8659.93" fill="#F4D851"/>
<g opacity="0.03">
<path d="M7617.41 7143.74C7680.33 7143.74 7731.34 7092.74 7731.34 7029.82C7731.34 6966.89 7680.33 6915.89 7617.41 6915.89C7554.49 6915.89 7503.48 6966.89 7503.48 7029.82C7503.48 7092.74 7554.49 7143.74 7617.41 7143.74Z" fill="black"/>
<path d="M6617.23 7800.43C6702.09 7800.43 6770.89 7731.64 6770.89 7646.78C6770.89 7561.91 6702.09 7493.12 6617.23 7493.12C6532.37 7493.12 6463.58 7561.91 6463.58 7646.78C6463.58 7731.64 6532.37 7800.43 6617.23 7800.43Z" fill="black"/>
<path d="M3782.56 6460.17C3913.62 6460.17 4019.86 6311.44 4019.86 6127.96C4019.86 5944.49 3913.62 5795.75 3782.56 5795.75C3651.51 5795.75 3545.27 5944.49 3545.27 6127.96C3545.27 6311.44 3651.51 6460.17 3782.56 6460.17Z" fill="black"/>
<path d="M5064.01 4277.01C5221.28 4277.01 5348.77 4209.01 5348.77 4125.13C5348.77 4041.25 5221.28 3973.25 5064.01 3973.25C4906.75 3973.25 4779.26 4041.25 4779.26 4125.13C4779.26 4209.01 4906.75 4277.01 5064.01 4277.01Z" fill="black"/>
<path d="M6770.89 4092.78C6836.9 4092.78 6890.42 4039.27 6890.42 3973.25C6890.42 3907.23 6836.9 3853.72 6770.89 3853.72C6704.87 3853.72 6651.36 3907.23 6651.36 3973.25C6651.36 4039.27 6704.87 4092.78 6770.89 4092.78Z" fill="black"/>
<path d="M5064.02 3095.16C5160.98 3095.16 5239.59 3016.55 5239.59 2919.59C5239.59 2822.62 5160.98 2744.01 5064.02 2744.01C4967.05 2744.01 4888.44 2822.62 4888.44 2919.59C4888.44 3016.55 4967.05 3095.16 5064.02 3095.16Z" fill="black"/>
<path d="M3649.7 3465.11C3668.23 3465.11 3683.25 3450.09 3683.25 3431.55C3683.25 3413.02 3668.23 3398 3649.7 3398C3631.16 3398 3616.14 3413.02 3616.14 3431.55C3616.14 3450.09 3631.16 3465.11 3649.7 3465.11Z" fill="black"/>
<path d="M2634.06 5818.03C2693.57 5818.03 2741.81 5769.79 2741.81 5710.27C2741.81 5650.76 2693.57 5602.52 2634.06 5602.52C2574.54 5602.52 2526.3 5650.76 2526.3 5710.27C2526.3 5769.79 2574.54 5818.03 2634.06 5818.03Z" fill="black"/>
<path d="M4561.05 9255.68C4642.31 9255.68 4708.18 9189.81 4708.18 9108.55C4708.18 9027.3 4642.31 8961.43 4561.05 8961.43C4479.8 8961.43 4413.93 9027.3 4413.93 9108.55C4413.93 9189.81 4479.8 9255.68 4561.05 9255.68Z" fill="black"/>
<path d="M6165.21 9212.98C6264.8 9212.98 6345.53 9166.22 6345.53 9108.55C6345.53 9050.88 6264.8 9004.13 6165.21 9004.13C6065.61 9004.13 5984.88 9050.88 5984.88 9108.55C5984.88 9166.22 6065.61 9212.98 6165.21 9212.98Z" fill="black"/>
<path d="M8576.08 7843.99C8645.59 7843.99 8701.93 7787.65 8701.93 7718.14C8701.93 7648.64 8645.59 7592.3 8576.08 7592.3C8506.58 7592.3 8450.24 7648.64 8450.24 7718.14C8450.24 7787.65 8506.58 7843.99 8576.08 7843.99Z" fill="black"/>
<path d="M9060.1 6313.19C9099.4 6313.19 9131.26 6281.33 9131.26 6242.04C9131.26 6202.74 9099.4 6170.88 9060.1 6170.88C9020.81 6170.88 8988.95 6202.74 8988.95 6242.04C8988.95 6281.33 9020.81 6313.19 9060.1 6313.19Z" fill="black"/>
<path d="M8450.24 6170.88C8473.82 6170.88 8492.94 6151.76 8492.94 6128.18C8492.94 6104.59 8473.82 6085.47 8450.24 6085.47C8426.65 6085.47 8407.53 6104.59 8407.53 6128.18C8407.53 6151.76 8426.65 6170.88 8450.24 6170.88Z" fill="black"/>
<path d="M8883.68 5587.97C8941.82 5587.97 8988.95 5540.84 8988.95 5482.7C8988.95 5424.56 8941.82 5377.42 8883.68 5377.42C8825.54 5377.42 8778.4 5424.56 8778.4 5482.7C8778.4 5540.84 8825.54 5587.97 8883.68 5587.97Z" fill="black"/>
<path d="M8163.78 4126.9C8206.21 4126.9 8240.61 4092.51 8240.61 4050.08C8240.61 4007.65 8206.21 3973.25 8163.78 3973.25C8121.35 3973.25 8086.96 4007.65 8086.96 4050.08C8086.96 4092.51 8121.35 4126.9 8163.78 4126.9Z" fill="black"/>
<path d="M7016.48 5738.08C7128.18 5738.08 7218.73 5704.48 7218.73 5663.03C7218.73 5621.58 7128.18 5587.97 7016.48 5587.97C6904.78 5587.97 6814.23 5621.58 6814.23 5663.03C6814.23 5704.48 6904.78 5738.08 7016.48 5738.08Z" fill="black"/>
</g>
<g opacity="0.03">
<path d="M3393.89 4716.48C3425.35 4716.48 3450.85 4690.98 3450.85 4659.52C3450.85 4628.06 3425.35 4602.55 3393.89 4602.55C3362.43 4602.55 3336.92 4628.06 3336.92 4659.52C3336.92 4690.98 3362.43 4716.48 3393.89 4716.48Z" fill="black"/>
<path d="M7445.81 8760.17C7498.93 8760.17 7542 8700.68 7542 8627.3C7542 8553.92 7498.93 8494.43 7445.81 8494.43C7392.68 8494.43 7349.61 8553.92 7349.61 8627.3C7349.61 8700.68 7392.68 8760.17 7445.81 8760.17Z" fill="black"/>
<path d="M3410.34 8418.45C3471.85 8418.45 3521.72 8405.31 3521.72 8389.09C3521.72 8372.87 3471.85 8359.72 3410.34 8359.72C3348.83 8359.72 3298.97 8372.87 3298.97 8389.09C3298.97 8405.31 3348.83 8418.45 3410.34 8418.45Z" fill="black"/>
<path d="M2888.45 8029.21C2918.57 8029.21 2943 8004.79 2943 7974.66C2943 7944.53 2918.57 7920.11 2888.45 7920.11C2858.32 7920.11 2833.89 7944.53 2833.89 7974.66C2833.89 8004.79 2858.32 8029.21 2888.45 8029.21Z" fill="black"/>
<path d="M2767.92 7573.71C2834.48 7573.71 2888.44 7519.75 2888.44 7453.18C2888.44 7386.62 2834.48 7332.66 2767.92 7332.66C2701.35 7332.66 2647.39 7386.62 2647.39 7453.18C2647.39 7519.75 2701.35 7573.71 2767.92 7573.71Z" fill="black"/>
<path d="M9587.61 6624.4C9600.73 6624.4 9611.37 6588.28 9611.37 6543.74C9611.37 6499.19 9600.73 6463.08 9587.61 6463.08C9574.48 6463.08 9563.84 6499.19 9563.84 6543.74C9563.84 6588.28 9574.48 6624.4 9587.61 6624.4Z" fill="black"/>
<path d="M9736.23 5529.45C9763.3 5529.45 9785.25 5507.5 9785.25 5480.43C9785.25 5453.36 9763.3 5431.41 9736.23 5431.41C9709.16 5431.41 9687.21 5453.36 9687.21 5480.43C9687.21 5507.5 9709.16 5529.45 9736.23 5529.45Z" fill="black"/>
<path d="M9072.94 3852.72C9092.85 3852.72 9108.98 3836.59 9108.98 3816.69C9108.98 3796.78 9092.85 3780.65 9072.94 3780.65C9053.04 3780.65 9036.91 3796.78 9036.91 3816.69C9036.91 3836.59 9053.04 3852.72 9072.94 3852.72Z" fill="black"/>
<path d="M7627.06 2751.6C7670.82 2751.6 7706.29 2716.13 7706.29 2672.36C7706.29 2628.6 7670.82 2593.12 7627.06 2593.12C7583.29 2593.12 7547.82 2628.6 7547.82 2672.36C7547.82 2716.13 7583.29 2751.6 7627.06 2751.6Z" fill="black"/>
<path d="M6930.64 2715.07C7005 2715.07 7065.29 2654.79 7065.29 2580.43C7065.29 2506.06 7005 2445.78 6930.64 2445.78C6856.28 2445.78 6796 2506.06 6796 2580.43C6796 2654.79 6856.28 2715.07 6930.64 2715.07Z" fill="black"/>
<path d="M5828.67 1840.31C5862.76 1840.31 5890.39 1812.68 5890.39 1778.6C5890.39 1744.51 5862.76 1716.88 5828.67 1716.88C5794.59 1716.88 5766.95 1744.51 5766.95 1778.6C5766.95 1812.68 5794.59 1840.31 5828.67 1840.31Z" fill="black"/>
<path d="M3569.53 2445.78C3635.08 2445.78 3688.21 2435.62 3688.21 2423.08C3688.21 2410.54 3635.08 2400.38 3569.53 2400.38C3503.99 2400.38 3450.85 2410.54 3450.85 2423.08C3450.85 2435.62 3503.99 2445.78 3569.53 2445.78Z" fill="black"/>
<path d="M2683.29 3392.04C2703.11 3392.04 2719.18 3363.43 2719.18 3328.13C2719.18 3292.83 2703.11 3264.21 2683.29 3264.21C2663.46 3264.21 2647.39 3292.83 2647.39 3328.13C2647.39 3363.43 2663.46 3392.04 2683.29 3392.04Z" fill="black"/>
<path d="M5805.26 6240.19C5850.32 6240.19 5886.84 6184.7 5886.84 6116.26C5886.84 6047.81 5850.32 5992.33 5805.26 5992.33C5760.2 5992.33 5723.68 6047.81 5723.68 6116.26C5723.68 6184.7 5760.2 6240.19 5805.26 6240.19Z" fill="black"/>
<path d="M7023.64 9454.67C7046.64 9454.67 7065.28 9384.19 7065.28 9297.25C7065.28 9210.31 7046.64 9139.84 7023.64 9139.84C7000.65 9139.84 6982 9210.31 6982 9297.25C6982 9384.19 7000.65 9454.67 7023.64 9454.67Z" fill="black"/>
<path d="M5218.8 9633.43C5259.43 9633.43 5292.37 9614.31 5292.37 9590.73C5292.37 9567.14 5259.43 9548.02 5218.8 9548.02C5178.18 9548.02 5145.24 9567.14 5145.24 9590.73C5145.24 9614.31 5178.18 9633.43 5218.8 9633.43Z" fill="black"/>
<path d="M4201.96 9376.14C4223.74 9376.14 4241.4 9358.48 4241.4 9336.7C4241.4 9314.91 4223.74 9297.25 4201.96 9297.25C4180.17 9297.25 4162.52 9314.91 4162.52 9336.7C4162.52 9358.48 4180.17 9376.14 4201.96 9376.14Z" fill="black"/>
<path d="M5339.83 8418.45C5366.04 8418.45 5387.28 8397.21 5387.28 8371C5387.28 8344.79 5366.04 8323.54 5339.83 8323.54C5313.62 8323.54 5292.37 8344.79 5292.37 8371C5292.37 8397.21 5313.62 8418.45 5339.83 8418.45Z" fill="black"/>
<path d="M5344.58 5529.45C5373.41 5529.45 5396.79 5525.95 5396.79 5521.64C5396.79 5517.33 5373.41 5513.84 5344.58 5513.84C5315.74 5513.84 5292.37 5517.33 5292.37 5521.64C5292.37 5525.95 5315.74 5529.45 5344.58 5529.45Z" fill="black"/>
<path d="M6151.23 5304.36C6174.74 5304.36 6193.8 5285.3 6193.8 5261.79C6193.8 5238.28 6174.74 5219.23 6151.23 5219.23C6127.73 5219.23 6108.67 5238.28 6108.67 5261.79C6108.67 5285.3 6127.73 5304.36 6151.23 5304.36Z" fill="black"/>
<path d="M8107.88 5261.79C8129.12 5261.79 8146.33 5244.58 8146.33 5223.34C8146.33 5202.11 8129.12 5184.89 8107.88 5184.89C8086.65 5184.89 8069.43 5202.11 8069.43 5223.34C8069.43 5244.58 8086.65 5261.79 8107.88 5261.79Z" fill="black"/>
<path d="M8503.02 4820.91C8560.73 4820.91 8607.51 4806.04 8607.51 4787.71C8607.51 4769.37 8560.73 4754.51 8503.02 4754.51C8445.31 4754.51 8398.52 4769.37 8398.52 4787.71C8398.52 4806.04 8445.31 4820.91 8503.02 4820.91Z" fill="black"/>
</g>
</g>
<defs>
<clipPath id="clip0_164_462">
<rect width="11637" height="11637" fill="white"/>
</clipPath>
</defs>
</svg>
