<svg width="558" height="310" viewBox="0 0 558 310" fill="none" xmlns="http://www.w3.org/2000/svg">
<g clip-path="url(#clip0_181_8)">
<g clip-path="url(#clip1_181_8)">
<path d="M397.553 80.3781C398.497 82.1636 399.396 83.9618 400.257 85.7728C406.456 98.7686 410.627 112.243 412.878 125.825C413.86 131.717 414.479 137.635 414.747 143.553C414.843 145.753 414.894 147.94 414.9 150.14C414.913 155.904 414.587 161.656 413.937 167.357C412.636 178.759 410.047 189.969 406.214 200.752C406.15 200.943 406.08 201.128 406.01 201.326C405.257 203.424 404.46 205.509 403.612 207.575C403.612 207.575 403.61 207.579 403.605 207.588C403.248 208.462 402.885 209.322 402.508 210.19C399.894 216.235 396.877 222.127 393.478 227.796C379.791 250.676 359.849 270.201 334.536 283.529C302.164 300.567 266.417 304.636 233.229 297.577C229.817 296.85 226.436 296.008 223.082 295.045C213.133 292.195 203.49 288.33 194.3 283.503C189.223 280.831 184.294 277.866 179.523 274.62C177.706 273.383 175.907 272.089 174.14 270.762C169.402 267.217 164.855 263.372 160.531 259.24C149.064 248.284 139.14 235.32 131.341 220.507L131.219 220.284C127.622 213.429 124.612 206.415 122.157 199.311C120.894 195.651 119.784 191.971 118.821 188.266C118.598 187.425 118.394 186.577 118.19 185.722C118.184 185.703 118.177 185.677 118.171 185.658C117.999 184.957 117.833 184.262 117.673 183.554C112.884 162.415 112.833 140.817 117.087 120.188C123.662 88.2279 140.55 58.5887 166.111 36.5634C167.246 35.5941 168.388 34.6312 169.549 33.6938C177.119 27.553 185.403 22.0626 194.364 17.3438C204.695 11.9045 215.371 7.79145 226.201 4.93467C258.822 -3.66758 292.814 -0.823543 322.878 11.8407C337.126 17.8285 350.487 26.029 362.413 36.2509C376.411 48.2584 388.427 63.0588 397.54 80.3653L397.553 80.3781Z" fill="#57A9A9"/>
<path d="M397.7 80.3721C397.757 80.4868 397.783 80.6144 397.77 80.7674C397.547 83.8474 382.304 94.5285 357.725 109.342C356.316 110.196 354.874 111.063 353.401 111.937H353.388C330.927 125.335 301.532 141.742 269.032 158.851C195.518 197.551 133.943 225.156 131.494 220.508L131.373 220.284C129.408 216.548 127.623 212.754 126.003 208.934C124.657 205.745 123.426 202.544 122.31 199.311C121.047 195.651 119.938 191.972 118.975 188.267C118.764 187.457 118.566 186.641 118.362 185.818C118.356 185.786 118.35 185.754 118.343 185.722C118.337 185.703 118.33 185.678 118.324 185.659C118.152 184.957 117.986 184.262 117.827 183.554C114.746 169.927 113.63 156.102 114.364 142.469C114.485 140.078 114.676 137.693 114.925 135.314C115.435 130.232 116.213 125.188 117.24 120.195C120.352 105.031 125.799 90.3963 133.381 76.8457C134.179 75.4237 134.989 74.0144 135.837 72.6243C143.892 59.2586 154.096 47.0599 166.264 36.5765C174.746 29.2687 184.185 22.7963 194.517 17.357C204.848 11.9176 215.525 7.80458 226.354 4.94779C241.877 0.841158 257.712 -0.65738 273.28 0.26725C274.912 0.350148 276.532 0.477683 278.159 0.630725C293.624 2.03999 308.771 5.84054 323.038 11.8474C327.731 13.8242 332.336 16.037 336.813 18.492C338.892 19.6207 340.939 20.8004 342.961 22.0311L343.044 22.0821C349.887 26.2462 356.418 30.9905 362.572 36.2577C367.483 40.4663 372.145 45.0257 376.533 49.9167C381.89 55.8853 386.82 62.3514 391.258 69.2893C393.542 72.8602 395.691 76.5524 397.7 80.3721Z" fill="#57A9A9"/>
<path opacity="0.1" d="M235.448 2.84434C261.602 -2.32083 289.466 -0.592728 316.322 9.27211C350.659 21.8917 377.623 45.7025 394.613 75.0739C396.354 78.0901 397.999 81.17 399.53 84.301C404.077 93.592 407.668 103.348 410.238 113.398C411.654 118.952 412.757 124.602 413.542 130.316C413.841 132.497 414.084 134.697 414.281 136.89C414.823 142.782 415.008 148.732 414.836 154.713C414.383 170.566 411.399 186.616 405.627 202.328L405.538 202.571C402.853 209.834 399.67 216.765 396.035 223.346C394.167 226.732 392.177 230.023 390.066 233.217C389.587 233.944 389.096 234.671 388.599 235.392C388.593 235.411 388.58 235.43 388.567 235.449C388.165 236.049 387.757 236.642 387.336 237.228C374.849 254.943 358.841 269.45 340.672 280.112C312.534 296.641 279.211 303.955 245.735 299.733C244.255 299.542 242.776 299.338 241.296 299.102C286.201 285.15 324.02 250.932 340.856 203.719C341.558 201.78 342.196 199.829 342.814 197.852C348.803 178.722 350.876 159.292 349.466 140.429C344.925 79.2251 303.828 24.0981 241.685 4.66172C239.606 4.01129 237.527 3.4055 235.442 2.8571L235.448 2.84434Z" fill="#2B3169"/>
</g>
<g clip-path="url(#clip2_181_8)">
<path d="M532.465 25.6122C532.401 25.1537 532.261 24.7144 532.049 24.3132C530.002 20.4547 521.724 20.079 508.437 22.7214C497.114 24.9691 482.164 29.4134 464.303 35.7616C442.994 43.3322 417.546 53.6217 389.238 66.1334C390.486 67.8971 391.701 69.6927 392.878 71.5201C392.993 71.692 393.102 71.8639 393.217 72.0422C401.63 68.3046 409.722 64.8026 417.443 61.5553C417.731 61.4343 418.013 61.3134 418.301 61.1924C429.47 56.4997 439.859 52.3355 449.334 48.7635C465.474 42.67 478.953 38.2766 489.099 35.8507C501.004 33.0109 508.303 32.8836 509.909 35.9144C510.075 36.2327 510.177 36.5702 510.222 36.9522C511.099 44.7012 485.625 65.4202 443.499 92.6848H443.48C441.164 94.2066 438.772 95.7348 436.347 97.282C436.258 97.3393 436.162 97.3966 436.072 97.4539C436.072 97.4539 436.068 97.456 436.059 97.4603C428.338 102.376 420.117 107.476 411.462 112.735C376.866 133.754 335.214 157.249 289.819 181.037C238.302 208.034 189.818 231.294 149.784 248.638C145.626 250.434 141.564 252.172 137.604 253.846C84.5391 276.183 48.8555 286.682 45.0619 279.513L45.0428 279.475C44.4222 278.259 44.7229 276.597 45.8808 274.521C46.4693 273.451 47.2882 272.273 48.3373 270.993C48.5804 270.701 48.8235 270.395 49.0986 270.083C49.0986 270.083 49.0986 270.07 49.1114 270.064C49.3161 269.816 49.5336 269.574 49.7767 269.306C56.7305 261.513 70.638 250.434 89.9703 237.075C98.2867 231.332 107.607 225.168 117.811 218.655C118.009 218.527 118.208 218.406 118.406 218.285C118.489 218.234 118.579 218.177 118.662 218.12C121.553 216.273 124.515 214.408 127.548 212.517C127.516 212.434 127.477 212.345 127.439 212.262C126.53 210.167 125.68 208.066 124.874 205.952C104.121 218.941 85.8633 231.109 70.7211 242.01C49.7895 257.081 34.8328 269.739 27.5208 278.857C27.2649 279.169 27.0346 279.456 26.8235 279.742C26.8171 279.755 26.8043 279.761 26.8043 279.774C26.5292 280.131 26.2606 280.487 26.0111 280.831C24.9235 282.34 24.0727 283.728 23.4842 285.014C22.3327 287.485 22.1024 289.522 22.8956 291.063L22.9212 291.114C23.2603 291.751 23.7656 292.298 24.4373 292.738C31.615 297.551 57.5685 291.751 95.6447 277.883C112.994 271.567 132.857 263.576 154.608 254.158C195.524 236.438 243.113 213.65 293.19 187.411C337.389 164.246 378.261 141.152 413.26 119.854C427.481 111.207 440.729 102.853 452.833 94.9134C452.833 94.9134 452.841 94.9091 452.858 94.9006C455.609 93.1051 458.283 91.3222 460.919 89.5649H460.925C467.578 85.1142 473.841 80.8099 479.682 76.6712C512.883 53.176 532.484 35.093 532.529 26.4654C532.529 26.1725 532.51 25.8859 532.465 25.6122Z" fill="#64D3D0"/>
<path d="M557.83 16.0182C557.753 15.5152 557.6 15.0377 557.369 14.5983C555.137 10.3769 546.085 9.96935 531.544 12.8537C519.165 15.3115 502.814 20.1761 483.283 27.1227C456.953 36.4699 424.851 49.6183 388.995 65.7911C389.072 65.9057 389.155 66.0203 389.238 66.1349C390.486 67.8986 391.701 69.6942 392.878 71.5216C392.993 71.6935 393.102 71.8655 393.217 72.0437C393.262 72.1138 393.307 72.1838 393.351 72.2602C401.745 68.459 409.882 64.8487 417.725 61.4423H417.731C417.923 61.3595 418.115 61.2767 418.301 61.1939C436.174 53.445 452.513 46.7657 466.907 41.3345C484.563 34.6743 499.302 29.867 510.395 27.2182C522.236 24.3912 529.906 24.0219 532.529 26.4669C532.791 26.7152 533.002 26.989 533.162 27.2883C533.342 27.6321 533.45 28.0014 533.501 28.4217C534.314 35.6485 514.182 53.1839 479.682 76.6727C473.713 80.735 467.316 84.982 460.522 89.3754L460.503 89.3881C457.874 91.1009 455.161 92.8328 452.404 94.5902C452.404 94.5902 452.398 94.5923 452.385 94.5966C440.313 102.282 427.135 110.394 413.023 118.811C377.813 139.823 336.755 162.79 292.448 186.005C242.275 212.302 194.718 235.358 153.987 253.485C132.422 263.081 112.77 271.301 95.6447 277.884C54.613 293.669 28.1286 300.093 24.7508 293.707L24.7316 293.669C24.5845 293.382 24.4886 293.07 24.4374 292.739C24.2391 291.529 24.6549 290.027 25.6528 288.25C26.299 287.079 27.1946 285.793 28.3397 284.392C28.602 284.073 28.8706 283.736 29.1713 283.398C29.1713 283.398 29.1713 283.386 29.1841 283.379C29.408 283.106 29.6447 282.838 29.907 282.545C37.5197 274.019 52.7258 261.903 73.875 247.296C86.5159 238.567 101.287 228.939 117.811 218.656C117.997 218.548 118.176 218.433 118.361 218.319C118.374 218.319 118.393 218.3 118.406 218.287C121.413 216.421 124.477 214.53 127.599 212.62C127.58 212.588 127.567 212.55 127.548 212.518C127.516 212.435 127.477 212.346 127.439 212.263C126.53 210.169 125.68 208.067 124.874 205.954C124.803 205.782 124.739 205.61 124.675 205.431C96.713 222.591 72.378 238.605 52.8218 252.696C29.9262 269.174 13.5685 283.023 5.57201 292.994C5.29693 293.331 5.04104 293.643 4.80435 293.962C4.79795 293.974 4.77876 293.987 4.78516 294C4.49088 294.388 4.19022 294.777 3.92153 295.152C2.73165 296.802 1.80406 298.323 1.15154 299.724C-0.102309 302.43 -0.3518 304.659 0.511822 306.346L0.543808 306.397C7.02418 318.648 70.8235 298.839 159.617 259.375C200.815 241.056 247.399 218.51 296.133 192.977C339.186 170.418 379.348 147.916 414.661 126.809C435.112 114.59 453.933 102.836 470.738 91.8141C470.738 91.8141 470.747 91.8077 470.764 91.795C473.771 89.8338 476.694 87.8855 479.573 85.9626H479.586C529.625 52.5026 559.551 26.5752 557.83 16.0182Z" fill="#254E4D"/>
<path d="M458.776 59.8694C458.737 59.5574 458.648 59.2582 458.507 58.9907C457.432 56.9532 453.645 56.4311 447.568 57.2589C445.828 57.4881 443.902 57.8319 441.797 58.284C433.737 60.0095 423.066 63.3077 410.304 67.9558C405.327 69.7705 400.03 71.7889 394.445 73.9984C394.964 74.8388 395.475 75.6857 395.987 76.5389C396.294 77.061 396.601 77.5895 396.908 78.118C397.778 77.7805 398.636 77.4431 399.48 77.1183C411.021 72.6803 420.642 69.4394 427.877 67.612C436.36 65.4662 441.535 65.2561 442.623 67.3128C442.738 67.5229 442.802 67.7521 442.827 68.0131C443.25 72.553 429.848 83.9122 406.984 99.2445C403.126 101.836 398.994 104.542 394.612 107.344H394.599C392.872 108.471 391.087 109.598 389.276 110.737C389.276 110.737 389.272 110.74 389.264 110.744C361.525 128.216 324.953 149.145 284.241 170.481C225.738 201.14 172.763 225.253 140.719 236.529C122.321 243.004 110.825 245.246 109.143 242.062L109.13 242.037C108.708 241.215 108.951 240.069 109.808 238.63C110.243 237.885 110.844 237.064 111.612 236.166C111.785 235.962 111.964 235.752 112.162 235.529C112.162 235.529 112.162 235.523 112.169 235.517C112.322 235.345 112.476 235.173 112.655 234.988C116.301 231.053 122.532 225.883 130.938 219.758C130.586 219.051 130.234 218.338 129.895 217.631C129.524 216.86 129.16 216.09 128.808 215.32C128.52 215.517 128.238 215.721 127.957 215.918C114.005 225.8 103.712 234.173 98.0308 240.419C97.5574 240.929 97.1288 241.425 96.7258 241.903C96.5402 242.119 96.3739 242.323 96.214 242.527C96.2076 242.533 96.1948 242.54 96.2012 242.546C96.0029 242.794 95.8046 243.043 95.6254 243.285C94.8258 244.335 94.1989 245.303 93.7575 246.194C92.9002 247.914 92.7083 249.314 93.2457 250.359L93.2585 250.384C95.8877 255.351 114.638 251.333 143.585 240.642C179.378 227.43 230.76 204.018 286.518 174.798C331.107 151.431 371.038 128.26 401.194 108.719C401.194 108.719 401.201 108.717 401.214 108.713C403.19 107.433 405.116 106.166 407.009 104.918H407.016C407.572 104.548 408.123 104.179 408.666 103.816C440.608 82.6196 459.716 66.3577 458.776 59.8694Z" fill="#85FFF3"/>
<path d="M492.643 46.2359C492.585 45.8475 492.47 45.4846 492.291 45.1471C490.583 41.9189 483.61 41.6196 472.402 43.8736C462.863 45.7838 450.255 49.5532 435.196 54.9272C429.694 56.8883 423.86 59.0659 417.731 61.4409H417.725C417.635 61.4791 417.539 61.5173 417.443 61.5555C409.709 64.5609 401.495 67.8909 392.878 71.5203C392.993 71.6922 393.102 71.8641 393.217 72.0424C393.262 72.1124 393.307 72.1825 393.351 72.2589C393.722 72.8319 394.087 73.4114 394.445 73.9971C394.964 74.8376 395.475 75.6845 395.987 76.5377C405.557 72.5072 414.449 68.9352 422.548 65.8725C432.048 62.275 440.448 59.3779 447.568 57.2576C450.651 56.3344 453.492 55.5576 456.076 54.9399C466.113 52.5268 472.267 52.3994 473.611 54.9399C473.752 55.201 473.835 55.4875 473.873 55.8059C474.59 62.3069 453.076 79.7531 417.514 102.733H417.501C415.467 104.063 413.375 105.394 411.244 106.75C411.244 106.75 411.24 106.75 411.232 106.75C410.797 107.024 410.362 107.304 409.92 107.584C377.538 128.106 335.067 152.48 287.817 177.242C233.703 205.596 183.555 229.084 146.208 244.156C108.785 259.246 84.2065 265.881 81.3533 260.481L81.3405 260.456C80.8223 259.437 81.0782 258.043 82.0634 256.292C82.5624 255.394 83.2533 254.407 84.1425 253.331C84.3472 253.083 84.5519 252.828 84.7822 252.567C84.7822 252.567 84.7886 252.554 84.795 252.548C84.9677 252.344 85.1532 252.134 85.358 251.911C88.2367 248.708 92.5036 244.837 98.0308 240.412C103.808 235.776 110.96 230.523 119.302 224.774C122.647 222.469 126.179 220.081 129.895 217.623C129.524 216.853 129.16 216.082 128.808 215.312C128.392 214.414 127.989 213.516 127.599 212.612C127.58 212.58 127.567 212.542 127.548 212.51C127.516 212.428 127.477 212.339 127.439 212.256C124.426 214.242 121.496 216.191 118.662 218.114C118.579 218.171 118.489 218.228 118.406 218.279C118.393 218.292 118.374 218.305 118.361 218.311C112.924 221.998 107.819 225.551 103.078 228.957C85.4027 241.653 72.7683 252.312 66.5822 259.978C66.3711 260.239 66.1727 260.481 65.9872 260.73C65.9872 260.736 65.9744 260.749 65.9744 260.755C65.7441 261.054 65.5138 261.354 65.3091 261.64C64.3815 262.907 63.665 264.079 63.166 265.155C62.1873 267.237 61.9954 268.943 62.6543 270.236L62.6735 270.274C66.3838 277.291 94.8386 270.478 137.604 253.84C141.615 252.28 145.754 250.631 150.008 248.899C189.178 232.975 238.296 210.008 290.638 182.578C336.563 158.51 378.235 134.543 411.647 113.41C416.394 110.405 420.975 107.457 425.376 104.573C425.376 104.573 425.382 104.568 425.395 104.56C427.717 103.045 429.975 101.542 432.195 100.058H432.202C433.603 99.1223 434.984 98.1927 436.347 97.2758C472.472 72.851 493.896 54.0294 492.643 46.2295V46.2359Z" fill="#4D8885"/>
</g>
</g>
<defs>
<clipPath id="clip0_181_8">
<rect width="557.9" height="310" fill="white"/>
</clipPath>
<clipPath id="clip1_181_8">
<rect width="300.9" height="300.9" fill="white" transform="translate(114)"/>
</clipPath>
<clipPath id="clip2_181_8">
<rect width="557.9" height="299" fill="white" transform="translate(0 11)"/>
</clipPath>
</defs>
</svg>
