<svg width="72" height="72" viewBox="0 0 72 72" fill="none" xmlns="http://www.w3.org/2000/svg">
<g clip-path="url(#clip0_185_11)">
<g clip-path="url(#clip1_185_11)">
<path d="M35.9996 71.7767C55.8816 71.7767 71.9992 55.7361 71.9992 35.9489C71.9992 16.1618 55.8816 0.121094 35.9996 0.121094C16.1176 0.121094 0 16.1618 0 35.9489C0 55.7361 16.1176 71.7767 35.9996 71.7767Z" fill="#F09721"/>
<path d="M12.7527 63.305C9.62893 60.4985 12.2139 56.7146 12.8792 55.8469C12.9715 55.7267 13.0939 55.634 13.2357 55.5791C14.1036 55.238 17.4421 54.0509 19.2321 55.1912C21.3009 56.509 22.3146 54.4501 22.8113 53.5646C23.3081 52.6791 23.9701 52.3089 24.073 52.9057C24.1767 53.5025 25.2107 53.6267 25.2318 53.1323C25.2528 52.638 24.3218 52.288 25.7074 51.2178C27.0939 50.1468 27.6733 52.5767 28.3556 52.7001C29.0387 52.8234 27.4869 56.5299 28.9139 55.8501C30.3417 55.1702 31.148 55.1727 32.5758 55.4194C34.0036 55.6662 33.7961 56.6751 33.8172 56.9227C33.8383 57.1695 33.5279 57.6848 34.6859 57.2937C35.8446 56.9025 37.9012 53.4823 38.8121 54.1622C39.722 54.842 44.5548 51.0928 43.7478 52.6984C42.9407 54.3041 46.1066 50.1678 48.5271 48.3145C50.9475 46.4613 51.5326 47.6952 51.6152 48.1073C51.6979 48.5194 52.4839 48.025 52.65 46.9129C52.8161 45.8008 52.774 46.0685 53.436 45.9863C54.0981 45.904 55.7276 46.954 56.1822 45.204C56.6376 43.454 53.1613 37.5652 55.4789 36.8241C57.7964 36.0829 60.1698 33.145 60.7492 35.1216C61.3286 37.0983 59.8392 40.6402 60.7492 40.6402C61.6592 40.6402 64.5561 36.2749 64.9702 36.2749C65.3843 36.2749 67.3704 40.8257 64.7012 43.7903C62.032 46.7556 62.2184 46.8169 62.2184 47.4347C62.2184 48.0524 64.5148 49.9057 64.8876 50.5847C65.2603 51.2646 65.6323 55.8574 64.8876 56.4138C64.1429 56.9695 62.9736 59.6743 62.9736 59.6743C62.9736 59.6743 55.504 70.2704 41.7211 71.5825C31.9769 72.51 23.2043 72.6946 12.7527 63.3066V63.305Z" fill="#BF4202"/>
<path d="M0.735189 28.7116C0.735189 28.7116 7.72264 20.889 11.2435 25.5834C14.7636 30.2778 7.15055 33.5311 8.47462 35.7553C9.7987 37.9787 12.1819 34.4786 12.1819 34.4786C12.1819 34.4786 15.0123 32.2964 16.0876 34.1077C17.1638 35.9198 19.3978 28.7544 19.0672 26.6124C18.7358 24.4713 23.6188 26.6947 23.2047 28.3423C22.7907 29.9899 20.3913 30.9778 20.3913 33.3665C20.3913 35.7553 17.6605 34.3553 16.9985 36.9908C16.3364 39.6263 18.8193 41.0263 17.8258 42.3441C16.8323 43.6618 19.1499 49.5917 21.2186 44.7328C23.2874 39.8731 27.177 40.3674 28.0043 41.4384C28.8317 42.5094 32.97 43.2505 32.0592 38.9674C31.1492 34.6843 26.5976 34.3553 31.2319 33.1198C35.8661 31.8843 36.0492 32.131 35.999 29.7431C35.9488 27.3544 35.4877 22.9543 38.6561 24.0834C41.8244 25.2132 40.1698 29.331 42.4038 31.2254C44.6379 33.1198 45.714 38.2021 46.9554 35.9488C48.1969 33.6956 45.2173 23.4834 50.1003 26.6955C54.9834 29.9076 60.3623 28.1778 53.5758 24.7189C46.7901 21.2599 49.4383 18.7889 54.9825 19.5301C60.5276 20.2712 66.3198 27.7665 63.4237 20.6833C60.5276 13.6002 62.568 14.0123 64.196 15.8236C65.8239 17.6357 66.6804 17.1994 66.6804 17.1994C66.6804 17.1994 56.3423 -2.69113 31.3323 0.420192C6.32239 3.53071 0.423213 27.4544 0.735189 28.7116Z" fill="#DC7A0B"/>
<path d="M50.8651 69.1644C50.8651 69.1644 47.9074 69.9765 46.9552 67.67C46.0039 65.3635 48.4859 66.1055 48.1966 62.7691C47.9074 59.4336 47.2453 56.8804 49.3967 56.5917C51.5482 56.3037 52.1275 56.3037 52.1275 54.4916C52.1275 52.6795 52.7069 52.2263 54.693 50.9085C56.6791 49.5908 57.5891 48.5198 57.6726 47.2843C57.7553 46.0488 60.6109 46.0488 60.2381 48.6021C59.8654 51.1553 57.2999 52.6376 59.038 54.1618C60.7762 55.6852 61.5873 57.8272 60.2713 58.8151C58.9554 59.803 56.9692 61.1627 57.4238 62.2328C57.8792 63.3038 57.0511 65.1571 56.2237 65.1571C55.3964 65.1571 54.9369 66.9644 54.9369 66.9644C54.9369 66.9644 51.9096 68.9152 50.8642 69.1636L50.8651 69.1644Z" fill="#621501"/>
<path d="M28.6043 67.1553C27.6733 66.0432 28.8523 62.7077 30.4041 63.9432C31.9558 65.1787 33.1973 59.8044 34.4387 61.9045C35.6801 64.0045 38.2869 66.8465 35.2458 67.1553C32.2046 67.4642 30.5904 70.7384 29.5978 68.9465" fill="#621501"/>
<path d="M6.35857 15.5205C5.63171 16.6172 12.0325 18.3568 13.5219 17.4302C15.0112 16.5035 17.5565 15.9479 18.8595 18.6036C20.1633 21.26 18.6115 22.9278 21.5903 22.1867C24.5699 21.4455 22.9557 12.0559 26.8039 14.3414C30.6522 16.6269 31.5208 16.7769 32.3903 13.9841C33.259 11.1914 31.0249 13.2301 30.1141 11.5414C29.2041 9.85265 28.1693 9.07038 29.4108 7.95828C30.6522 6.84617 31.3304 5.32276 33.7014 6.68165C36.0725 8.04053 34.7897 10.7172 38.1412 11.7059C41.4927 12.6946 41.5341 15.0003 43.8103 13.8059C46.0865 12.6116 52.3754 10.0583 52.4167 14.0116C52.4581 17.9648 57.2998 16.8116 58.3338 14.5471C59.3685 12.2817 59.9058 10.5527 61.1885 11.7059C62.4713 12.8591 63.169 12.2696 63.169 12.2696C63.169 12.2696 52.0165 -2.31845 31.9406 0.349321C11.8672 3.01629 6.71268 14.9858 6.35857 15.5205Z" fill="#B45408"/>
<path opacity="0.1" d="M0 35.9476C0 41.33 1.19523 46.4437 3.33531 51.0276C9.2823 55.3487 16.6117 57.8987 24.5391 57.8987C44.4213 57.8987 60.5379 41.8582 60.5379 22.0709C60.5379 16.6837 59.4813 11.4216 57.3412 6.83844C51.7832 2.80936 44.1369 -0.344707 35.9996 0.0302968C12.667 1.10692 6.34567 15.5353 6.34567 15.5353C6.34567 15.5353 1.81189 21.9717 0.774673 28.0653C0.739829 28.2717 0.777104 28.504 0.734967 28.7105C0.268218 31.0081 0 33.4153 0 35.9476Z" fill="white"/>
<path d="M71.9984 35.9489C71.9984 35.9489 68.8454 38.0199 67.1275 36.3731C65.4104 34.7255 63.921 33.9432 64.7071 33.0376C65.4931 32.1319 65.3926 30.8755 64.4915 30.2787C63.5896 29.6819 62.99 25.8311 64.831 27.7053C66.6721 29.5787 67.8722 32.3384 68.2239 30.3819C68.5756 28.4254 68.6379 27.3754 69.4653 28.3843C70.2926 29.3932 70.9344 30.8343 70.996 30.3198C71.0584 29.8053 71.6451 30.9142 71.6483 30.9368C71.6516 30.9593 72.0227 33.4553 71.9976 35.9497L71.9984 35.9489Z" fill="#BF4202"/>
<path opacity="0.03" d="M13.3939 36.0247C13.3939 36.0247 9.38442 11.3462 25.2741 11.3462C41.1638 11.3462 47.016 9.3696 49.3862 14.9705C51.7564 20.5713 39.5651 15.1761 31.3435 24.8125C23.1219 34.4489 18.0881 36.1925 13.3939 36.0255V36.0247Z" fill="white" stroke="#685236" stroke-width="41" stroke-miterlimit="10"/>
<path opacity="0.03" d="M19.0668 24.6771C21.6323 18.4996 17.3287 15.9052 23.1217 17.2649C28.9147 18.6238 32.118 9.86158 35.7417 14.6705C39.3663 19.4794 26.1831 19.1181 23.535 25.3779C22.6193 27.5424 19.7281 27.7255 19.3974 26.2013C19.3974 26.2013 18.4599 25.7755 18.763 25.2263" fill="white"/>
<path opacity="0.2" d="M49.6283 47.6104C50.7498 44.3587 51.4888 40.9305 51.7911 37.3788C51.7983 37.2925 51.8056 37.207 51.8121 37.1207C51.9005 35.9998 51.9458 34.8667 51.9458 33.7231C51.9458 31.6013 51.7902 29.5158 51.4904 27.4771C51.4467 27.1787 51.3997 26.8811 51.3494 26.5843C51.1274 25.2698 50.8454 23.9762 50.5051 22.7053C50.2928 21.9069 50.057 21.1181 49.7985 20.3391C49.719 20.0988 49.6372 19.8601 49.5537 19.6213C49.3034 18.9068 49.0335 18.2012 48.7467 17.5052C48.0603 15.8399 47.2702 14.2277 46.3854 12.6753C46.1917 12.3334 45.9924 11.9946 45.7882 11.6592C45.7728 11.6334 45.7565 11.6084 45.7411 11.5825C43.8142 8.41961 41.4861 5.52603 38.8274 2.97277C37.7837 1.96873 36.689 1.01711 35.5472 0.124355C35.5383 0.117097 35.5294 0.109839 35.5205 0.103387C35.5019 0.0880645 35.4832 0.0727418 35.4638 0.0582255C35.4597 0.0549996 35.4549 0.0517738 35.4508 0.048548C35.6234 0.0420963 35.796 0.0364511 35.967 0.0332252C35.9702 0.0332252 35.9743 0.0332252 35.9775 0.0332252C35.9848 0.0332252 35.9921 0.0324187 35.9994 0.0324187C39.8541 -0.145809 43.6003 0.468714 47.0644 1.59373C47.0709 1.59615 47.0774 1.59776 47.0839 1.60018C47.0976 1.60421 47.1106 1.60905 47.1244 1.61308C47.1373 1.61631 47.1495 1.62034 47.1617 1.62437C48.3399 2.00018 49.4565 2.42761 50.5107 2.88971C50.5132 2.88971 50.5172 2.89213 50.5172 2.89213C53.3128 4.09859 55.7171 5.58893 57.7518 7.14782C57.7559 7.15024 57.7599 7.15347 57.764 7.1575C61.1544 9.72285 62.9954 12.0455 63.1583 12.2551C63.1608 12.2584 63.1632 12.2608 63.1648 12.2632C63.1664 12.2648 63.1689 12.268 63.1689 12.268V12.2697H63.1705C65.4726 14.9439 66.5949 17.0391 66.676 17.1915C66.6776 17.1939 66.6792 17.1971 66.6792 17.1971C66.68 17.1995 66.6808 17.2004 66.6808 17.2004C69.218 21.3028 70.9472 25.9537 71.6473 30.9328C71.6481 30.9352 71.6489 30.9368 71.6489 30.9368C71.6489 30.9432 71.6505 30.9489 71.6514 30.9553C71.653 30.9626 71.6538 30.9715 71.6554 30.9836C71.657 30.9973 71.6595 31.0102 71.6611 31.0239C71.6619 31.0311 71.6635 31.0384 71.6643 31.0465C71.666 31.0578 71.6676 31.0691 71.6692 31.0803C71.6708 31.0957 71.6732 31.1118 71.6757 31.1295C71.6854 31.1989 71.6959 31.2852 71.7089 31.3868C71.7162 31.4424 71.7243 31.5029 71.7316 31.5674V31.5699C71.7364 31.6094 71.7413 31.6497 71.7462 31.6892C71.7486 31.7102 71.751 31.732 71.7535 31.7537C71.7575 31.786 71.7616 31.8199 71.7648 31.8545C71.7972 32.1408 71.8329 32.482 71.8661 32.8626C71.8702 32.9142 71.875 32.9658 71.8791 33.0183C71.8855 33.0933 71.8912 33.1691 71.8969 33.2449C71.9601 34.0562 72.0079 35.0038 71.9982 35.9498C71.9982 45.0474 68.5908 53.3548 62.9752 59.6734V59.675L62.9736 59.6766C62.9039 59.7758 60.1423 63.6412 54.9392 66.9654C54.9392 66.9654 54.9027 66.9888 54.8371 67.0307C54.8087 67.0485 54.7755 67.0703 54.7366 67.0945C54.7236 67.1025 54.7107 67.1106 54.6961 67.1195C54.6612 67.1412 54.6232 67.1654 54.5826 67.1904C54.5567 67.2066 54.5292 67.2235 54.5008 67.2412C53.624 67.7888 51.6655 68.9751 50.8665 69.1655C50.8665 69.1655 50.8648 69.1654 50.8608 69.1671C48.2216 70.3461 45.1699 71.255 41.7227 71.5832C37.3502 71.9993 33.173 72.2663 28.9512 71.5848C29.1813 71.4647 29.4098 71.3429 29.6367 71.2187C29.644 71.2147 29.6513 71.2106 29.6586 71.2066C31.8821 69.9905 33.9857 68.584 35.9475 67.009C36.3025 66.7162 36.3592 66.688 36.5836 66.4872C38.0633 65.2525 39.4571 63.9202 40.7568 62.4992C41.3476 61.8549 41.918 61.192 42.4674 60.5129C45.5045 56.7589 47.9169 52.4838 49.5473 47.8434" fill="black"/>
</g>
</g>
<defs>
<clipPath id="clip0_185_11">
<rect width="72" height="72" fill="white"/>
</clipPath>
<clipPath id="clip1_185_11">
<rect width="72" height="72" fill="white"/>
</clipPath>
</defs>
</svg>
